<?xml version="1.0" encoding="UTF-8"?><svg id="Layer_1" xmlns="http://www.w3.org/2000/svg" viewBox="0 0 145.27 163.73"><defs><style>.cls-1{stroke-linecap:round;}.cls-1,.cls-2,.cls-3,.cls-4,.cls-5,.cls-6{stroke:#000;stroke-miterlimit:10;}.cls-1,.cls-3{fill:#754d24;}.cls-7,.cls-8{stroke-width:0px;}.cls-7,.cls-5{fill:#000;}.cls-2,.cls-3,.cls-4,.cls-5,.cls-6{stroke-width:3px;}.cls-2,.cls-8{fill:#fff;}.cls-4{fill:#c9af96;}.cls-6{fill:none;}</style></defs><path class="cls-6" d="M1.5,29.98v121.64s59.73,22.79,142.27-.01V29.98S76.43-1.51,1.5,29.98Z"/><path class="cls-4" d="M143.77,58.46c-2.45,2.33-7.54,6.52-15.2,8.45-12.31,3.1-22.36-1.86-24.98-3.26-5.17-1.97-13.05-4.24-22.81-4.34-14.67-.16-25.84,4.66-31.49,7.6-3.98,2.53-7.96,5.07-11.95,7.6-.99.7-9.75,6.66-20.63,3.26-11.07-3.46-14.82-13.63-15.2-14.73V29.98s16.98-6.84,29.12-9.39,37.51-6.15,50.89-4.35c13.38,1.8,32.55,2.98,45.77,7.82,13.22,4.84,16.48,5.93,16.48,5.93v28.48Z"/><path class="cls-2" d="M26.48,15.86c-1.91.71-6.5,2.74-9.77,7.6-5.48,8.15-2.57,17.29-2.17,18.46,2.61.96,6.76,2.14,11.95,2.17,5.4.03,9.69-1.19,12.35-2.17.39-1.28,2.97-10.37-2.58-18.46-3.29-4.8-7.8-6.85-9.77-7.6Z"/><path class="cls-2" d="M68.97,1.6c-1.91.71-6.5,2.74-9.77,7.6-5.48,8.15-2.57,17.29-2.17,18.46,2.61.96,6.76,2.14,11.95,2.17,5.4.03,9.69-1.19,12.35-2.17.39-1.28,2.97-10.37-2.58-18.46-3.29-4.8-7.8-6.85-9.77-7.6Z"/><path class="cls-2" d="M109.15,15.72c-1.91.71-6.5,2.74-9.77,7.6-5.48,8.15-2.57,17.29-2.17,18.46,2.61.96,6.76,2.14,11.95,2.17,5.4.03,9.69-1.19,12.35-2.17.39-1.28,2.97-10.37-2.58-18.46-3.29-4.8-7.8-6.85-9.77-7.6Z"/><path class="cls-2" d="M143.77,130.83c-78.19,13.97-142.27,0-142.27,0v-27.45c12.77,4.1,24.2,6.54,33.67,8.05,33.31,5.31,60,1.91,75.34-.16,13.83-1.87,25.23-4.4,33.26-6.43v25.99Z"/><path class="cls-3" d="M1.5,103.38c24.98,9.32,49.96,10.22,72.84,10.87,22.89.64,69.42-9.41,69.42-9.41v-23.29c-85.79,18.98-142.27.83-142.27.83v21Z"/><path class="cls-3" d="M1.5,130.83v20.8s61.9,23.88,142.27-.01v-20.78s-48.87,15.05-142.27,0Z"/><path class="cls-2" d="M108.55,65.82s21.37,8,35.21-7.36v23.08s-81.37,19.11-142.27.83v-19.34s8.8,32.68,49.96,3.87c0,0,15.7,6.52,57.81,0"/><path class="cls-1" d="M52.3,65.41s22.61,4.92,54.62.41c7.68-1.08-26.14-6.52-26.14-6.52,0,0-14.12-1.08-29.32,6.52,0,0,20.04,6.73,57.1,0"/><circle class="cls-5" cx="61.77" cy="110.89" r="8.14"/><circle class="cls-5" cx="90.01" cy="110.89" r="8.14"/><circle class="cls-8" cx="63.94" cy="107.63" r="4.34"/><circle class="cls-8" cx="93.27" cy="107.63" r="4.34"/><path class="cls-7" d="M83.8,132.61h-17.38s1.38-13.84,8.69-14.11c7.3-.28,8.69,14.11,8.69,14.11Z"/></svg>