<?xml version="1.0" encoding="UTF-8"?><svg id="Layer_1" xmlns="http://www.w3.org/2000/svg" viewBox="0 0 152.05 174"><defs><style>.cls-1{stroke:#674c2e;}.cls-1,.cls-2,.cls-3,.cls-4,.cls-5,.cls-6,.cls-7{stroke-miterlimit:10;}.cls-1,.cls-2,.cls-5,.cls-6,.cls-7{stroke-width:3px;}.cls-1,.cls-8{fill:#89663c;}.cls-2{fill:#e62d40;}.cls-2,.cls-3,.cls-4,.cls-5,.cls-6,.cls-7{stroke:#000;}.cls-3{stroke-width:4px;}.cls-3,.cls-5{fill:none;stroke-linecap:round;}.cls-4{fill:#ee808b;stroke-width:2px;}.cls-9{fill:#fff;}.cls-9,.cls-8{stroke-width:0px;}.cls-6{fill:#503111;}.cls-7{fill:#000;}</style></defs><path class="cls-6" d="M118.98,172.5H33.02c-17.41,0-31.52-14.11-31.52-31.52V33.02C1.5,15.61,15.61,1.5,33.02,1.5h85.96c17.41,0,31.52,14.11,31.52,31.52v107.96c0,17.41-14.11,31.52-31.52,31.52Z"/><rect class="cls-1" x="16.5" y="15.5" width="32" height="32" rx="6.78" ry="6.78"/><rect class="cls-1" x="60.5" y="15.5" width="32" height="32" rx="6.78" ry="6.78"/><rect class="cls-1" x="104.5" y="15.5" width="32" height="32" rx="6.78" ry="6.78"/><rect class="cls-1" x="16.5" y="56.5" width="32" height="32" rx="6.78" ry="6.78"/><rect class="cls-1" x="60.5" y="56.5" width="32" height="32" rx="6.78" ry="6.78"/><rect class="cls-1" x="104.5" y="56.5" width="32" height="32" rx="6.78" ry="6.78"/><rect class="cls-1" x="16.5" y="97.5" width="32" height="32" rx="6.78" ry="6.78"/><rect class="cls-8" x="59.5" y="97.5" width="32" height="32" rx="6.78" ry="6.78"/><path class="cls-2" d="M150.5,81.31L1.5,112.2v24.26l.43,9.72s.25,9.07,9.16,17.45c8.91,8.38,19.9,8.81,19.9,8.81h89.51s13.25-2.01,17.38-6.22c4.12-4.21,8.72-7.78,10.92-15,2.2-7.21,1.7-8.12,1.7-8.12v-61.79Z"/><path class="cls-4" d="M4,118c1.51,1.04,2.89-1.6,6-1,5.71,1.1,9.15-1.26,15-2,6.51-.82,7.57,1.44,15,2,13.39,1.02,14.97-5.94,26-5,11.77,1.01,13.49,9.24,23,8,8.55-1.11,9.44-8.07,17-8,8.79.08,10.78,9.51,19,9,7.06-.44,9.4-7.64,16-7,4.08.4,7.12,3.53,9,6l.55-1.54-.05-37.15v-1.15l-67.12,15.06L1.5,112.2l2.5,5.8Z"/><circle class="cls-7" cx="61.5" cy="133.5" r="7.5"/><circle class="cls-7" cx="88.5" cy="133.5" r="7.5"/><circle class="cls-9" cx="59.5" cy="129.5" r="4"/><circle class="cls-9" cx="88.5" cy="129.5" r="4"/><path class="cls-3" d="M67,158s8-25,17.5,0"/><line class="cls-5" x1="51.84" y1="118.29" x2="70.16" y2="127.71"/><line class="cls-5" x1="96.8" y1="116.42" x2="79.41" y2="127.45"/></svg>