<?xml version="1.0" encoding="UTF-8"?><svg id="Layer_1" xmlns="http://www.w3.org/2000/svg" viewBox="0 0 68.75 15.29"><defs><style>.cls-1{fill:#000;stroke:#000;}.cls-1,.cls-2{stroke-miterlimit:10;}.cls-2{fill:none;stroke:red;stroke-linecap:round;}</style></defs><path class="cls-1" d="M1.38,4.27c2.16.28,4.33.56,6.49.84,20.26,2.61,40.52,5.23,60.78,7.84C46.65,8.81,24.65,4.66,2.66.52c-.16.08-1.26.69-1.51,1.99-.16.84.12,1.51.24,1.75Z"/><line class="cls-2" x1="9.97" y1="5.38" x2="10.98" y2="2.09"/><line class="cls-2" x1="11.87" y1="5.62" x2="12.8" y2="2.43"/><path class="cls-1" d="M.87,10.49c2.18.14,4.35.28,6.53.42,20.39,1.3,40.77,2.59,61.16,3.89C46.35,12.09,24.12,9.38,1.9,6.67c-.15.09-1.22.77-1.38,2.09-.11.84.22,1.5.35,1.73Z"/><line class="cls-2" x1="9.51" y1="11.04" x2="10.31" y2="7.69"/><line class="cls-2" x1="11.42" y1="11.16" x2="12.15" y2="7.92"/></svg>