<?xml version="1.0" encoding="UTF-8"?><svg id="Layer_1" xmlns="http://www.w3.org/2000/svg" viewBox="0 0 172.55 172.93"><defs><style>.cls-1{fill:#000;}.cls-1,.cls-2{stroke-width:0px;}.cls-3{stroke:#b8529e;stroke-width:5px;}.cls-3,.cls-4,.cls-5,.cls-6,.cls-7,.cls-8,.cls-9{stroke-miterlimit:10;}.cls-3,.cls-5,.cls-7,.cls-8{fill:none;stroke-linecap:round;}.cls-4{fill:#754d24;}.cls-4,.cls-6,.cls-7,.cls-9{stroke:#000;stroke-width:3px;}.cls-5{stroke-width:19px;}.cls-5,.cls-8{stroke:#662f8e;}.cls-6{fill:#b997c6;}.cls-2{fill:#fff;}.cls-8{stroke-width:20px;}.cls-9{fill:#f4a3c7;}</style></defs><path class="cls-6" d="M11.31,92.8l17.51,64.98s46.88,30.69,118.91,0l20.28-64.4c-7.42-6.09-13.45-7.19-17.29-7.21-2.02-.01-5.64.84-12.79,2.56-12.44,2.98-12.53,3.47-15.34,3.41-5.15-.11-8.97-1.84-16.2-5.11-4.72-2.14-8.47-4.32-11.08-5.97-5.01-.87-12.56-1.4-20.46,1.7-6.5,2.56-8.53,5.74-14.49,7.67-4.55,1.48-11.7,2.33-22.16-1.7-.89-.67-7.64-5.6-16.2-3.41-6.33,1.62-9.76,6.15-10.69,7.47Z"/><path class="cls-4" d="M14.9,88.95s-.57-8.73,5.39-13.85h136.94s7.04,2.17,7.08,15.58c0,0-8.49-5.35-13.6-4.5-5.11.85-26.52,5.91-26.52,5.91,0,0-23.25-6.31-34.59-11.65s-29.24,10.01-29.24,10.01c0,0-10,3.85-23.75-2.76s-21.7,1.27-21.7,1.27Z"/><path class="cls-9" d="M119.35,18.97s15.17-4.39,16.02,9.25c0,0,20.46-1.09,16.62,18.64,0,0,23.44,2.68,18.33,26.54-5.11,23.87-34.95,6.82-34.95,6.82,0,0-27.28-12.79-40.06,4.26-12.79,17.05-37.95,1.64-37.95,1.64,0,0-7.23-5.05-20.01-9.31s-16.2,1.7-16.2,1.7c0,0-18.75,2.56-19.61-11.08-.85-13.64,11.08-17.9,11.08-17.9,0,0-5.97-18.75,15.34-25.57,0,0,2.56-20.46,24.72-16.2,0,0,25.57-17.9,38.36,6.82,0,0,20.81-11.21,28.31,4.39.24.5.46,1.02.68,1.58"/><line class="cls-8" x1="53.36" y1="101.96" x2="59.42" y2="158.21"/><line class="cls-5" x1="124.39" y1="102.17" x2="119.02" y2="155.85"/><path class="cls-3" d="M147.73,48.56s-14.06,24.84-38.78,15.46c-24.72-9.38-33.83,2.12-33.83,2.12"/><path class="cls-3" d="M119.02,24.35s-41.98,29.72-65.66-12.19"/><path class="cls-3" d="M16.57,50.9s24.09,14.34,51.98-8.69"/><circle class="cls-1" cx="76.98" cy="124.12" r="8.52"/><circle class="cls-1" cx="102.55" cy="124.12" r="8.52"/><line class="cls-7" x1="70.98" y1="111.66" x2="86.59" y2="119.69"/><line class="cls-7" x1="108.62" y1="110.56" x2="93.28" y2="119.09"/><path class="cls-1" d="M97.39,144.58h-14.81s1.18-11.8,7.41-12.03c6.23-.24,7.41,12.03,7.41,12.03Z"/><circle class="cls-2" cx="80.82" cy="121.99" r="3.84"/><circle class="cls-2" cx="98.72" cy="121.99" r="3.84"/></svg>