<?xml version="1.0" encoding="UTF-8"?><svg id="Layer_1" xmlns="http://www.w3.org/2000/svg" xmlns:xlink="http://www.w3.org/1999/xlink" viewBox="0 0 1920 1080"><defs><style>.cls-1{stroke-width:2px;}.cls-1,.cls-2,.cls-3,.cls-4,.cls-5,.cls-6,.cls-7{stroke-miterlimit:10;}.cls-1,.cls-2,.cls-6,.cls-7,.cls-8{stroke:#000;}.cls-1,.cls-3{fill:none;}.cls-9{fill:url(#linear-gradient);}.cls-9,.cls-10,.cls-11,.cls-12,.cls-13{stroke-width:0px;}.cls-10,.cls-8{fill:#000;}.cls-2{fill:#fff;}.cls-11{fill:#a6431f;}.cls-12{fill:#d98c4a;}.cls-3{stroke:#a6431f;stroke-width:7px;}.cls-4{fill:url(#linear-gradient-2);}.cls-4,.cls-5{stroke:#d97e4a;}.cls-5{fill:url(#linear-gradient-3);}.cls-6{fill:#f2bbc5;}.cls-7{fill:#f299a9;}.cls-13{fill:#f2b66d;}</style><linearGradient id="linear-gradient" x1="962.52" y1="1387.36" x2="956.2" y2="-530.85" gradientUnits="userSpaceOnUse"><stop offset=".17" stop-color="#6effff"/><stop offset=".29" stop-color="#58e1f5"/><stop offset=".47" stop-color="#3bbbe8"/><stop offset=".62" stop-color="#29a3e0"/><stop offset=".71" stop-color="#239bde"/></linearGradient><linearGradient id="linear-gradient-2" x1="726.43" y1="1173.12" x2="726.65" y2="1035.62" gradientTransform="translate(818.31 -790.49) rotate(37.56)" gradientUnits="userSpaceOnUse"><stop offset=".99" stop-color="#d98c4a"/><stop offset=".99" stop-color="#b08f4a"/><stop offset="1" stop-color="#4b974a"/><stop offset="1" stop-color="#009d4a"/></linearGradient><linearGradient id="linear-gradient-3" x1="1115.53" y1="84.49" x2="1115.76" y2="-53.03" gradientTransform="translate(-113.28 1207.16) rotate(-38.28)" xlink:href="#linear-gradient-2"/></defs><rect class="cls-9" x=".23" y=".28" width="1919" height="1079"/><path class="cls-10" d="M1918.73.78v1078H.73V.78h1918M1919.73-.22H-.27v1080h1920V-.22h0Z"/><path class="cls-8" d="M588.11,267.32h29c6.24,7.75,9.37,15.91,9.37,24.51,0,9.99-3.66,18.39-10.98,25.18-7.32,6.8-16.33,10.19-27.02,10.19-13.89,0-25.68-5.27-35.37-15.81-9.69-10.54-14.54-23.38-14.54-38.52s4.93-27.83,14.8-37.92c9.87-10.09,22.2-15.14,36.98-15.14,5.05,0,10.64,1.02,16.79,3.07v30.43c-4.8-2.25-9.17-3.37-13.12-3.37-7.15,0-12.98,2.22-17.5,6.67-4.52,4.45-6.78,10.22-6.78,17.31s2.1,12.99,6.3,17.24c4.2,4.25,9.87,6.37,17.01,6.37,4.55,0,6.82-1.32,6.82-3.97,0-2-1.5-3-4.5-3h-7.27v-23.23Z"/><path class="cls-8" d="M675.95,273.31v26.98h-8.77v24.36h-30.43v-65.05c0-12.59,3.43-22.37,10.3-29.34,6.87-6.97,16.53-10.45,28.97-10.45s20.86,3.16,26.6,9.48c5.75,6.32,8.62,16.08,8.62,29.27v66.1h-30.43v-64.08c0-4-.48-6.77-1.42-8.32-.95-1.55-2.65-2.32-5.1-2.32-4.75,0-7.12,3.55-7.12,10.64v12.74h8.77Z"/><path class="cls-8" d="M727.58,324.65v-73.75c0-9.14,2.77-16.61,8.32-22.41,5.55-5.79,12.74-8.69,21.58-8.69,10.49,0,18.56,4.82,24.21,14.46,3.45-5.2,7.14-8.91,11.09-11.13,3.95-2.22,8.82-3.33,14.61-3.33,9.19,0,16.24,2.9,21.13,8.69,4.9,5.8,7.34,14.14,7.34,25.03v71.12h-30.43v-66.55c0-3.3-.26-5.48-.79-6.56-.52-1.07-1.59-1.61-3.18-1.61-3,0-4.5,2.55-4.5,7.64v67.08h-30.43v-66.55c0-3.25-.28-5.42-.82-6.52-.55-1.1-1.62-1.65-3.22-1.65-3,0-4.5,2.72-4.5,8.17v66.55h-30.43Z"/><path class="cls-8" d="M908.87,262.15v22.78h-19.86c-2.7,0-4.61.4-5.73,1.2-1.12.8-1.69,2.15-1.69,4.05,0,2.15.57,3.56,1.72,4.23,1.15.67,3.5,1.01,7.04,1.01h20.46v29.23h-23.91c-11.24,0-19.84-2.69-25.78-8.06-5.95-5.37-8.92-13.13-8.92-23.27v-40.1c0-9.79,2.81-17.39,8.43-22.78,5.62-5.4,13.53-8.09,23.72-8.09h26.46v29.38h-19.41c-5.25,0-7.87,1.7-7.87,5.1,0,2,.62,3.39,1.87,4.16,1.25.77,3.47,1.16,6.67,1.16h16.79Z"/><path class="cls-8" d="M1015.15,219.8c14.49,0,26.92,5.27,37.28,15.81,10.37,10.54,15.55,23.16,15.55,37.85s-5.22,27.63-15.66,38.07c-10.44,10.44-23.13,15.66-38.07,15.66s-27.5-5.25-38-15.74c-10.49-10.49-15.74-23.16-15.74-38s5.28-27.68,15.85-38.07c10.57-10.39,23.5-15.59,38.78-15.59ZM1014.25,249.93c-6.25,0-11.57,2.3-15.96,6.9-4.4,4.6-6.59,10.14-6.59,16.64s2.21,12.04,6.63,16.64c4.42,4.6,9.73,6.9,15.93,6.9s11.63-2.29,16-6.86c4.37-4.57,6.56-10.13,6.56-16.68s-2.19-12.1-6.56-16.68c-4.37-4.57-9.71-6.86-16-6.86Z"/><path class="cls-8" d="M1155.82,222.35l-44.59,108.14-44.29-108.14h35.22l9.37,31.93,10.34-31.93h33.95Z"/><path class="cls-8" d="M1217.04,262.15v22.78h-19.86c-2.7,0-4.61.4-5.73,1.2-1.12.8-1.69,2.15-1.69,4.05,0,2.15.57,3.56,1.72,4.23,1.15.67,3.5,1.01,7.04,1.01h20.46v29.23h-23.91c-11.24,0-19.84-2.69-25.78-8.06-5.95-5.37-8.92-13.13-8.92-23.27v-40.1c0-9.79,2.81-17.39,8.43-22.78,5.62-5.4,13.53-8.09,23.72-8.09h26.46v29.38h-19.41c-5.25,0-7.87,1.7-7.87,5.1,0,2,.62,3.39,1.87,4.16,1.25.77,3.47,1.16,6.67,1.16h16.79Z"/><path class="cls-8" d="M1266.88,249.85v74.79h-30.43v-102.3h39.05c11.89,0,21.11,2.95,27.65,8.84,7.29,6.6,10.94,14.96,10.94,25.11s-4.52,19.06-13.57,26.16l17.54,42.19h-31.93l-14.76-32.98v-26.31h2.4c6.39,0,9.59-2.75,9.59-8.24,0-4.85-3.7-7.27-11.09-7.27h-5.4Z"/><path class="cls-6" d="M103.59,49.14c.02-1.13.05-10.29-6.42-16.31-4.26-3.97-10.73-5.99-16.61-3.13-.31.15-7.35,3.72-8.95,11.6-1.88,9.26,5.08,18,13.08,28.04,3.82,4.8,9.94,11.61,18.81,18.22.03-12.8.06-25.6.09-38.41Z"/><path class="cls-6" d="M124.28,58.1c.64-.86,5.7-7.9,4.02-17.31-1.11-6.2-4.98-12.52-11.09-14.65-.32-.11-7.72-2.55-13.28,2.35-6.54,5.76-5.98,17.63-5.33,31.26.31,6.51,1.28,16.27,4.49,27.9,7.07-9.85,14.13-19.7,21.2-29.55Z"/><path class="cls-6" d="M64.98,79.6c-.98-.01-8.89.04-14.03,7.59-3.39,4.97-5.07,12.47-2.54,19.25.13.36,3.28,8.47,10.11,10.24,8.02,2.08,15.5-6.06,24.1-15.41,4.11-4.47,9.93-11.61,15.56-21.94-11.06.09-22.13.18-33.19.27Z"/><path class="cls-6" d="M72.52,55.58c-.75-.73-6.88-6.52-15-4.48-5.35,1.34-10.77,5.88-12.55,12.97-.09.37-2.13,8.95,2.16,15.34,5.04,7.51,15.29,6.74,27.07,5.86,5.62-.42,14.05-1.64,24.07-5.46-8.58-8.08-17.17-16.16-25.75-24.24Z"/><path class="cls-6" d="M100.14,113.48c-.04,1.13-.21,10.29,6.17,16.44,4.2,4.05,10.63,6.21,16.56,3.48.31-.14,7.41-3.56,9.13-11.41,2.02-9.22-4.8-18.1-12.64-28.31-3.75-4.87-9.75-11.81-18.52-18.61-.23,12.8-.46,25.6-.69,38.4Z"/><path class="cls-6" d="M79.6,104.09c-.65.85-5.82,7.78-4.29,17.23,1.01,6.22,4.78,12.62,10.86,14.88.32.12,7.67,2.71,13.32-2.07,6.63-5.62,6.25-17.5,5.82-31.15-.21-6.52-1.03-16.3-4.05-27.99-7.22,9.7-14.44,19.4-21.65,29.11Z"/><path class="cls-6" d="M138.42,83.35c.98.01,8.89-.05,14.03-7.6,3.38-4.97,5.07-12.47,2.54-19.25-.13-.36-3.29-8.47-10.11-10.24-8.02-2.08-15.5,6.07-24.1,15.43-4.1,4.47-9.93,11.62-15.55,21.95,11.06-.09,22.13-.19,33.19-.28Z"/><path class="cls-6" d="M130.89,107.38c.75.73,6.88,6.51,15,4.47,5.35-1.34,10.77-5.89,12.55-12.98.09-.37,2.12-8.95-2.17-15.34-5.05-7.51-15.29-6.74-27.07-5.85-5.62.42-14.05,1.65-24.07,5.47,8.59,8.07,17.17,16.15,25.76,24.22Z"/><path class="cls-7" d="M112.09,100.39c.37.56,3.47,5.05,8.58,5.69,3.37.42,7.12-.89,8.94-4.38.1-.18,2.23-4.44.31-8.86-2.25-5.2-8.52-7-15.72-9.06-3.44-.99-8.65-2.14-15.1-2.22,4.33,6.28,8.66,12.55,12.99,18.83Z"/><path class="cls-7" d="M99.24,103.38c-.01.65-.02,5.89,3.97,9.9,2.63,2.64,6.61,4.35,10.23,3.22.19-.06,4.52-1.5,5.5-5.88,1.15-5.15-3.15-10.75-8.08-17.19-2.36-3.08-6.13-7.51-11.6-12.06,0,7.34-.01,14.67-.02,22.01Z"/><path class="cls-7" d="M120.06,71.74c.47-.34,4.2-3.19,4.08-8.71-.08-3.64-1.83-7.91-5.33-10.33-.18-.13-4.43-2.98-8.27-1.41-4.51,1.84-5.29,8.49-6.2,16.12-.43,3.65-.77,9.22.07,16.28,5.22-3.98,10.43-7.97,15.65-11.95Z"/><path class="cls-7" d="M124.64,86.18c.6.09,5.48.74,8.63-3.15,2.08-2.56,3.11-6.71,1.55-10.82-.08-.22-2.03-5.14-6.23-6.74-4.94-1.88-9.54,2.15-14.82,6.77-2.52,2.21-6.1,5.81-9.56,11.24,6.81.9,13.62,1.79,20.43,2.69Z"/><path class="cls-7" d="M91.89,67.69c-.37-.57-3.39-5.11-8.51-5.85-3.37-.49-7.15.74-9.03,4.19-.1.18-2.3,4.38-.46,8.83,2.17,5.23,8.42,7.15,15.6,9.35,3.43,1.05,8.63,2.31,15.1,2.51-4.23-6.34-8.47-12.69-12.7-19.03Z"/><path class="cls-7" d="M104.82,64.97c.02-.65.12-5.88-3.81-9.96-2.59-2.68-6.55-4.47-10.2-3.41-.19.06-4.56,1.41-5.61,5.76-1.24,5.11,2.97,10.79,7.81,17.31,2.31,3.12,6.02,7.61,11.42,12.25.13-7.32.26-14.64.39-21.95Z"/><path class="cls-7" d="M83.96,96.06c-.47.34-4.2,3.19-4.07,8.71.08,3.64,1.83,7.91,5.33,10.32.18.13,4.43,2.97,8.27,1.41,4.51-1.84,5.29-8.49,6.19-16.13.43-3.65.77-9.22-.07-16.28-5.21,3.99-10.43,7.97-15.64,11.96Z"/><path class="cls-7" d="M79.38,81.62c-.6-.09-5.48-.74-8.63,3.15-2.08,2.56-3.11,6.71-1.54,10.82.08.22,2.03,5.14,6.24,6.74,4.94,1.88,9.54-2.15,14.82-6.78,2.52-2.21,6.1-5.81,9.55-11.25-6.81-.89-13.62-1.79-20.43-2.68Z"/><ellipse class="cls-2" cx="105.04" cy="81.67" rx=".97" ry="1.12"/><ellipse class="cls-2" cx="107.9" cy="77.37" rx=".97" ry="1.12"/><ellipse class="cls-2" cx="100.2" cy="72.13" rx=".97" ry="1.12"/><ellipse class="cls-2" cx="90.99" cy="87.27" rx=".97" ry="1.12"/><ellipse class="cls-2" cx="97.29" cy="79.98" rx=".97" ry="1.12"/><ellipse class="cls-2" cx="106.01" cy="94.56" rx=".97" ry="1.12"/><ellipse class="cls-2" cx="90.99" cy="74.94" rx=".97" ry="1.12"/><ellipse class="cls-2" cx="99.71" cy="86.71" rx=".97" ry="1.12"/><ellipse class="cls-2" cx="111.34" cy="85.59" rx=".97" ry="1.12"/><ellipse class="cls-2" cx="114.74" cy="75.5" rx=".97" ry="1.12"/><ellipse class="cls-2" cx="93.9" cy="96.81" rx=".97" ry="1.12"/><path class="cls-6" d="M167.76,201.26c.01-.86.03-7.82-4.2-12.39-2.79-3.01-7.02-4.55-10.87-2.38-.2.11-4.81,2.82-5.85,8.81-1.23,7.04,3.33,13.67,8.56,21.3,2.5,3.64,6.5,8.82,12.3,13.84.02-9.72.04-19.45.06-29.17Z"/><path class="cls-6" d="M181.29,208.07c.42-.65,3.73-6,2.63-13.15-.72-4.71-3.26-9.51-7.25-11.13-.21-.08-5.05-1.94-8.69,1.79-4.28,4.38-3.91,13.39-3.49,23.75.2,4.95.84,12.36,2.93,21.19,4.62-7.48,9.24-14.97,13.86-22.45Z"/><path class="cls-6" d="M142.5,224.4c-.64,0-5.82.03-9.18,5.77-2.21,3.78-3.32,9.47-1.66,14.62.09.27,2.15,6.43,6.61,7.78,5.25,1.58,10.14-4.6,15.76-11.71,2.69-3.39,6.5-8.82,10.18-16.67-7.24.07-14.47.14-21.71.21Z"/><path class="cls-6" d="M147.43,206.15c-.49-.56-4.5-4.95-9.81-3.4-3.5,1.02-7.05,4.47-8.21,9.86-.06.28-1.39,6.8,1.41,11.66,3.3,5.71,10,5.12,17.71,4.45,3.68-.32,9.19-1.25,15.74-4.15-5.61-6.14-11.23-12.27-16.84-18.41Z"/><path class="cls-6" d="M165.5,250.13c-.02.86-.14,7.81,4.03,12.49,2.75,3.08,6.95,4.72,10.83,2.64.2-.11,4.85-2.71,5.97-8.66,1.32-7-3.14-13.75-8.27-21.5-2.45-3.7-6.38-8.97-12.11-14.13-.15,9.72-.3,19.44-.45,29.17Z"/><path class="cls-6" d="M152.06,243c-.43.64-3.81,5.91-2.8,13.08.66,4.73,3.13,9.59,7.1,11.3.21.09,5.02,2.06,8.71-1.58,4.34-4.27,4.09-13.29,3.8-23.66-.14-4.95-.67-12.38-2.65-21.26-4.72,7.37-9.44,14.74-14.16,22.11Z"/><path class="cls-6" d="M190.54,227.25c.64,0,5.82-.03,9.18-5.77,2.21-3.78,3.32-9.47,1.66-14.62-.09-.27-2.15-6.43-6.61-7.78-5.25-1.58-10.14,4.61-15.76,11.72-2.68,3.4-6.49,8.82-10.17,16.67,7.24-.07,14.47-.14,21.71-.22Z"/><path class="cls-6" d="M185.61,245.5c.49.55,4.5,4.95,9.81,3.4,3.5-1.02,7.04-4.47,8.21-9.86.06-.28,1.39-6.8-1.42-11.65-3.3-5.71-10-5.12-17.71-4.44-3.68.32-9.19,1.25-15.74,4.16,5.62,6.13,11.23,12.27,16.85,18.4Z"/><path class="cls-7" d="M173.31,240.2c.25.43,2.27,3.84,5.61,4.33,2.2.32,4.66-.67,5.85-3.33.06-.14,1.46-3.37.2-6.73-1.47-3.95-5.57-5.31-10.28-6.88-2.25-.75-5.66-1.63-9.88-1.68,2.83,4.77,5.67,9.53,8.5,14.3Z"/><path class="cls-7" d="M164.91,242.46c0,.49-.01,4.48,2.6,7.52,1.72,2,4.32,3.31,6.69,2.45.12-.05,2.96-1.14,3.6-4.47.75-3.91-2.06-8.17-5.29-13.06-1.54-2.34-4.01-5.7-7.59-9.16,0,5.57,0,11.15-.01,16.72Z"/><path class="cls-7" d="M178.53,218.43c.31-.26,2.75-2.42,2.67-6.62-.05-2.76-1.19-6.01-3.48-7.84-.12-.1-2.9-2.26-5.41-1.07-2.95,1.4-3.46,6.45-4.05,12.25-.28,2.77-.5,7,.04,12.36,3.41-3.03,6.82-6.05,10.23-9.08Z"/><path class="cls-7" d="M181.52,229.4c.39.07,3.58.56,5.65-2.39,1.36-1.94,2.03-5.1,1.01-8.22-.05-.16-1.33-3.9-4.08-5.12-3.23-1.43-6.24,1.63-9.7,5.14-1.65,1.68-3.99,4.41-6.25,8.54,4.46.68,8.91,1.36,13.37,2.04Z"/><path class="cls-7" d="M160.1,215.35c-.24-.43-2.22-3.88-5.56-4.44-2.2-.37-4.68.57-5.91,3.19-.06.14-1.51,3.33-.3,6.71,1.42,3.97,5.51,5.43,10.21,7.1,2.24.8,5.65,1.75,9.88,1.91-2.77-4.82-5.54-9.64-8.31-14.46Z"/><path class="cls-7" d="M168.56,213.28c.01-.49.08-4.47-2.49-7.56-1.69-2.04-4.29-3.4-6.67-2.59-.13.04-2.98,1.07-3.67,4.37-.81,3.88,1.95,8.2,5.11,13.15,1.51,2.37,3.94,5.78,7.47,9.31.08-5.56.17-11.12.25-16.67Z"/><path class="cls-7" d="M154.92,236.9c-.31.26-2.75,2.42-2.67,6.62.05,2.76,1.2,6.01,3.49,7.84.12.1,2.9,2.26,5.41,1.07,2.95-1.4,3.46-6.45,4.05-12.25.28-2.77.5-7-.05-12.36-3.41,3.03-6.82,6.06-10.23,9.08Z"/><path class="cls-7" d="M151.92,225.93c-.39-.07-3.58-.56-5.65,2.4-1.36,1.95-2.03,5.1-1.01,8.22.05.16,1.33,3.9,4.08,5.12,3.23,1.43,6.24-1.63,9.69-5.15,1.65-1.68,3.99-4.41,6.25-8.54-4.46-.68-8.91-1.36-13.37-2.04Z"/><ellipse class="cls-2" cx="168.71" cy="225.97" rx=".63" ry=".85"/><ellipse class="cls-2" cx="170.58" cy="222.71" rx=".63" ry=".85"/><ellipse class="cls-2" cx="165.54" cy="218.73" rx=".63" ry=".85"/><ellipse class="cls-2" cx="159.51" cy="230.23" rx=".63" ry=".85"/><ellipse class="cls-2" cx="163.64" cy="224.69" rx=".63" ry=".85"/><ellipse class="cls-2" cx="169.34" cy="235.77" rx=".63" ry=".85"/><ellipse class="cls-2" cx="159.51" cy="220.86" rx=".63" ry=".85"/><ellipse class="cls-2" cx="165.22" cy="229.8" rx=".63" ry=".85"/><ellipse class="cls-2" cx="172.83" cy="228.95" rx=".63" ry=".85"/><ellipse class="cls-2" cx="175.05" cy="221.28" rx=".63" ry=".85"/><ellipse class="cls-2" cx="161.42" cy="237.47" rx=".63" ry=".85"/><path class="cls-6" d="M286.22,164.88c.02-1.03.05-9.38-5.77-14.88-3.83-3.62-9.64-5.46-14.92-2.86-.28.14-6.61,3.39-8.04,10.57-1.69,8.45,4.57,16.41,11.76,25.57,3.43,4.37,8.93,10.59,16.9,16.61.03-11.67.06-23.35.08-35.02Z"/><path class="cls-6" d="M304.8,173.05c.57-.78,5.12-7.2,3.61-15.79-.99-5.65-4.47-11.42-9.96-13.36-.29-.1-6.93-2.32-11.93,2.15-5.88,5.25-5.37,16.08-4.79,28.51.28,5.94,1.15,14.84,4.03,25.45,6.35-8.98,12.7-17.97,19.04-26.95Z"/><path class="cls-6" d="M251.53,192.66c-.88-.01-7.99.04-12.61,6.92-3.04,4.53-4.56,11.37-2.29,17.56.12.32,2.95,7.73,9.08,9.34,7.21,1.9,13.93-5.53,21.65-14.06,3.69-4.07,8.92-10.59,13.98-20.01-9.94.08-19.88.16-29.82.25Z"/><path class="cls-6" d="M258.3,170.75c-.67-.67-6.18-5.94-13.48-4.09-4.8,1.22-9.68,5.36-11.28,11.83-.08.34-1.91,8.16,1.94,13.99,4.53,6.85,13.74,6.15,24.32,5.34,5.05-.39,12.62-1.5,21.62-4.98-7.71-7.37-15.42-14.73-23.13-22.1Z"/><path class="cls-6" d="M283.12,223.55c-.03,1.03-.19,9.38,5.54,15,3.77,3.7,9.55,5.67,14.88,3.17.28-.13,6.66-3.25,8.2-10.4,1.82-8.41-4.32-16.51-11.36-25.81-3.37-4.44-8.76-10.77-16.64-16.97-.21,11.67-.41,23.34-.62,35.02Z"/><path class="cls-6" d="M264.66,214.99c-.59.77-5.23,7.09-3.85,15.71.91,5.67,4.3,11.51,9.76,13.57.29.11,6.89,2.47,11.96-1.89,5.96-5.13,5.62-15.96,5.23-28.4-.19-5.94-.92-14.86-3.64-25.53-6.48,8.85-12.97,17.7-19.45,26.54Z"/><path class="cls-6" d="M317.51,196.08c.88.01,7.99-.04,12.61-6.93,3.04-4.54,4.55-11.37,2.28-17.56-.12-.32-2.95-7.72-9.08-9.34-7.21-1.89-13.93,5.53-21.65,14.07-3.69,4.08-8.92,10.59-13.97,20.01,9.94-.09,19.88-.17,29.82-.26Z"/><path class="cls-6" d="M310.74,217.99c.67.67,6.19,5.94,13.48,4.08,4.8-1.23,9.68-5.37,11.27-11.84.08-.34,1.91-8.16-1.95-13.99-4.53-6.85-13.74-6.14-24.32-5.33-5.05.39-12.62,1.5-21.62,4.99,7.71,7.36,15.43,14.73,23.14,22.09Z"/><path class="cls-7" d="M293.85,211.62c.34.51,3.12,4.61,7.71,5.19,3.03.39,6.4-.81,8.03-4,.09-.17,2-4.05.28-8.08-2.02-4.74-7.65-6.38-14.12-8.26-3.09-.9-7.77-1.95-13.57-2.02,3.89,5.72,7.78,11.45,11.67,17.17Z"/><path class="cls-7" d="M282.31,214.34c-.01.59-.02,5.38,3.57,9.03,2.36,2.41,5.94,3.97,9.19,2.94.17-.05,4.06-1.37,4.94-5.36,1.03-4.7-2.83-9.81-7.26-15.68-2.12-2.81-5.51-6.84-10.42-10.99,0,6.69-.01,13.38-.02,20.07Z"/><path class="cls-7" d="M301.01,185.49c.42-.31,3.78-2.91,3.66-7.95-.07-3.32-1.64-7.21-4.79-9.42-.17-.12-3.98-2.71-7.43-1.29-4.05,1.68-4.76,7.74-5.57,14.7-.39,3.33-.69,8.41.06,14.84,4.69-3.63,9.37-7.27,14.06-10.9Z"/><path class="cls-7" d="M305.13,198.66c.54.08,4.92.67,7.76-2.87,1.87-2.34,2.8-6.12,1.39-9.87-.07-.2-1.82-4.69-5.6-6.14-4.44-1.72-8.57,1.96-13.32,6.18-2.27,2.01-5.48,5.29-8.59,10.25,6.12.82,12.24,1.64,18.36,2.45Z"/><path class="cls-7" d="M275.7,181.79c-.33-.52-3.05-4.66-7.64-5.34-3.03-.44-6.42.68-8.12,3.82-.09.17-2.07,4-.41,8.05,1.95,4.77,7.57,6.52,14.02,8.52,3.08.96,7.76,2.1,13.56,2.29-3.8-5.79-7.61-11.57-11.41-17.36Z"/><path class="cls-7" d="M287.32,179.31c.02-.59.11-5.36-3.43-9.08-2.33-2.45-5.89-4.08-9.16-3.11-.17.05-4.1,1.28-5.04,5.25-1.11,4.66,2.67,9.84,7.02,15.79,2.08,2.84,5.41,6.94,10.26,11.18.12-6.67.23-13.35.35-20.02Z"/><path class="cls-7" d="M268.58,207.66c-.42.31-3.77,2.91-3.66,7.95.08,3.32,1.64,7.21,4.79,9.42.17.12,3.98,2.71,7.43,1.28,4.05-1.68,4.75-7.74,5.56-14.71.39-3.33.69-8.41-.07-14.84-4.68,3.63-9.37,7.27-14.05,10.9Z"/><path class="cls-7" d="M264.46,194.49c-.54-.08-4.92-.67-7.76,2.88-1.87,2.34-2.79,6.12-1.39,9.87.07.2,1.83,4.68,5.6,6.14,4.44,1.71,8.57-1.96,13.32-6.18,2.27-2.02,5.48-5.3,8.58-10.26-6.12-.82-12.24-1.63-18.36-2.45Z"/><ellipse class="cls-2" cx="287.52" cy="194.54" rx=".87" ry="1.02"/><ellipse class="cls-2" cx="290.09" cy="190.62" rx=".87" ry="1.02"/><ellipse class="cls-2" cx="283.17" cy="185.84" rx=".87" ry="1.02"/><ellipse class="cls-2" cx="274.9" cy="199.65" rx=".87" ry="1.02"/><ellipse class="cls-2" cx="280.56" cy="193" rx=".87" ry="1.02"/><ellipse class="cls-2" cx="288.4" cy="206.3" rx=".87" ry="1.02"/><ellipse class="cls-2" cx="274.9" cy="188.4" rx=".87" ry="1.02"/><ellipse class="cls-2" cx="282.73" cy="199.14" rx=".87" ry="1.02"/><ellipse class="cls-2" cx="293.18" cy="198.12" rx=".87" ry="1.02"/><ellipse class="cls-2" cx="296.23" cy="188.91" rx=".87" ry="1.02"/><ellipse class="cls-2" cx="277.51" cy="208.34" rx=".87" ry="1.02"/><path class="cls-6" d="M1606.23,67.96c.02-1.13.05-10.29-6.42-16.31-4.26-3.97-10.73-5.99-16.61-3.13-.31.15-7.35,3.72-8.95,11.6-1.88,9.26,5.08,18,13.08,28.04,3.82,4.8,9.94,11.61,18.81,18.22.03-12.8.06-25.6.09-38.41Z"/><path class="cls-6" d="M1626.92,76.92c.64-.86,5.7-7.9,4.02-17.31-1.11-6.2-4.98-12.52-11.09-14.65-.32-.11-7.72-2.55-13.28,2.35-6.54,5.76-5.98,17.63-5.33,31.26.31,6.51,1.28,16.27,4.49,27.9,7.07-9.85,14.13-19.7,21.2-29.55Z"/><path class="cls-6" d="M1567.62,98.42c-.98-.01-8.89.04-14.03,7.59-3.39,4.97-5.07,12.47-2.54,19.25.13.36,3.28,8.47,10.11,10.24,8.02,2.08,15.5-6.06,24.1-15.41,4.11-4.47,9.93-11.61,15.56-21.94-11.06.09-22.13.18-33.19.27Z"/><path class="cls-6" d="M1575.16,74.4c-.75-.73-6.88-6.52-15-4.48-5.35,1.34-10.77,5.88-12.55,12.97-.09.37-2.13,8.95,2.16,15.34,5.04,7.51,15.29,6.74,27.07,5.86,5.62-.42,14.05-1.64,24.07-5.46-8.58-8.08-17.17-16.16-25.75-24.24Z"/><path class="cls-6" d="M1602.78,132.3c-.04,1.13-.21,10.29,6.17,16.44,4.2,4.05,10.63,6.21,16.56,3.48.31-.14,7.41-3.56,9.13-11.41,2.02-9.22-4.8-18.1-12.64-28.31-3.75-4.87-9.75-11.81-18.52-18.61-.23,12.8-.46,25.6-.69,38.4Z"/><path class="cls-6" d="M1582.24,122.91c-.65.85-5.82,7.78-4.29,17.23,1.01,6.22,4.78,12.62,10.86,14.88.32.12,7.67,2.71,13.32-2.07,6.63-5.62,6.25-17.5,5.82-31.15-.21-6.52-1.03-16.3-4.05-27.99-7.22,9.7-14.44,19.4-21.65,29.11Z"/><path class="cls-6" d="M1641.06,102.18c.98.01,8.89-.05,14.03-7.6,3.38-4.97,5.07-12.47,2.54-19.25-.13-.36-3.29-8.47-10.11-10.24-8.02-2.08-15.5,6.07-24.1,15.43-4.1,4.47-9.93,11.62-15.55,21.95,11.06-.09,22.13-.19,33.19-.28Z"/><path class="cls-6" d="M1633.53,126.2c.75.73,6.88,6.51,15,4.47,5.35-1.34,10.77-5.89,12.55-12.98.09-.37,2.12-8.95-2.17-15.34-5.05-7.51-15.29-6.74-27.07-5.85-5.62.42-14.05,1.65-24.07,5.47,8.59,8.07,17.17,16.15,25.76,24.22Z"/><path class="cls-7" d="M1614.73,119.22c.37.56,3.47,5.05,8.58,5.69,3.37.42,7.12-.89,8.94-4.38.1-.18,2.23-4.44.31-8.86-2.25-5.2-8.52-7-15.72-9.06-3.44-.99-8.65-2.14-15.1-2.22,4.33,6.28,8.66,12.55,12.99,18.83Z"/><path class="cls-7" d="M1601.88,122.2c-.01.65-.02,5.89,3.97,9.9,2.63,2.64,6.61,4.35,10.23,3.22.19-.06,4.52-1.5,5.5-5.88,1.15-5.15-3.15-10.75-8.08-17.19-2.36-3.08-6.13-7.51-11.6-12.06,0,7.34-.01,14.67-.02,22.01Z"/><path class="cls-7" d="M1622.7,90.56c.47-.34,4.2-3.19,4.08-8.71-.08-3.64-1.83-7.91-5.33-10.33-.18-.13-4.43-2.98-8.27-1.41-4.51,1.84-5.29,8.49-6.2,16.12-.43,3.65-.77,9.22.07,16.28,5.22-3.98,10.43-7.97,15.65-11.95Z"/><path class="cls-7" d="M1627.28,105c.6.09,5.48.74,8.63-3.15,2.08-2.56,3.11-6.71,1.55-10.82-.08-.22-2.03-5.14-6.23-6.74-4.94-1.88-9.54,2.15-14.82,6.77-2.52,2.21-6.1,5.81-9.56,11.24,6.81.9,13.62,1.79,20.43,2.69Z"/><path class="cls-7" d="M1594.53,86.51c-.37-.57-3.39-5.11-8.51-5.85-3.37-.49-7.15.74-9.03,4.19-.1.18-2.3,4.38-.46,8.83,2.17,5.23,8.42,7.15,15.6,9.35,3.43,1.05,8.63,2.31,15.1,2.51-4.23-6.34-8.47-12.69-12.7-19.03Z"/><path class="cls-7" d="M1607.45,83.79c.02-.65.12-5.88-3.81-9.96-2.59-2.68-6.55-4.47-10.2-3.41-.19.06-4.56,1.41-5.61,5.76-1.24,5.11,2.97,10.79,7.81,17.31,2.31,3.12,6.02,7.61,11.42,12.25.13-7.32.26-14.64.39-21.95Z"/><path class="cls-7" d="M1586.6,114.88c-.47.34-4.2,3.19-4.07,8.71.08,3.64,1.83,7.91,5.33,10.32.18.13,4.43,2.97,8.27,1.41,4.51-1.84,5.29-8.49,6.19-16.13.43-3.65.77-9.22-.07-16.28-5.21,3.99-10.43,7.97-15.64,11.96Z"/><path class="cls-7" d="M1582.01,100.44c-.6-.09-5.48-.74-8.63,3.15-2.08,2.56-3.11,6.71-1.54,10.82.08.22,2.03,5.14,6.24,6.74,4.94,1.88,9.54-2.15,14.82-6.78,2.52-2.21,6.1-5.81,9.55-11.25-6.81-.89-13.62-1.79-20.43-2.68Z"/><ellipse class="cls-2" cx="1607.68" cy="100.49" rx=".97" ry="1.12"/><ellipse class="cls-2" cx="1610.54" cy="96.19" rx=".97" ry="1.12"/><ellipse class="cls-2" cx="1602.84" cy="90.96" rx=".97" ry="1.12"/><ellipse class="cls-2" cx="1593.63" cy="106.1" rx=".97" ry="1.12"/><ellipse class="cls-2" cx="1599.93" cy="98.81" rx=".97" ry="1.12"/><ellipse class="cls-2" cx="1608.65" cy="113.39" rx=".97" ry="1.12"/><ellipse class="cls-2" cx="1593.63" cy="93.76" rx=".97" ry="1.12"/><ellipse class="cls-2" cx="1602.35" cy="105.54" rx=".97" ry="1.12"/><ellipse class="cls-2" cx="1613.98" cy="104.41" rx=".97" ry="1.12"/><ellipse class="cls-2" cx="1617.38" cy="94.32" rx=".97" ry="1.12"/><ellipse class="cls-2" cx="1596.54" cy="115.63" rx=".97" ry="1.12"/><path class="cls-6" d="M1727.23,292.96c.02-1.13.05-10.29-6.42-16.31-4.26-3.97-10.73-5.99-16.61-3.13-.31.15-7.35,3.72-8.95,11.6-1.88,9.26,5.08,18,13.08,28.04,3.82,4.8,9.94,11.61,18.81,18.22.03-12.8.06-25.6.09-38.41Z"/><path class="cls-6" d="M1747.92,301.92c.64-.86,5.7-7.9,4.02-17.31-1.11-6.2-4.98-12.52-11.09-14.65-.32-.11-7.72-2.55-13.28,2.35-6.54,5.76-5.98,17.63-5.33,31.26.31,6.51,1.28,16.27,4.49,27.9,7.07-9.85,14.13-19.7,21.2-29.55Z"/><path class="cls-6" d="M1688.62,323.42c-.98-.01-8.89.04-14.03,7.59-3.39,4.97-5.07,12.47-2.54,19.25.13.36,3.28,8.47,10.11,10.24,8.02,2.08,15.5-6.06,24.1-15.41,4.11-4.47,9.93-11.61,15.56-21.94-11.06.09-22.13.18-33.19.27Z"/><path class="cls-6" d="M1696.16,299.4c-.75-.73-6.88-6.52-15-4.48-5.35,1.34-10.77,5.88-12.55,12.97-.09.37-2.13,8.95,2.16,15.34,5.04,7.51,15.29,6.74,27.07,5.86,5.62-.42,14.05-1.64,24.07-5.46-8.58-8.08-17.17-16.16-25.75-24.24Z"/><path class="cls-6" d="M1723.78,357.3c-.04,1.13-.21,10.29,6.17,16.44,4.2,4.05,10.63,6.21,16.56,3.48.31-.14,7.41-3.56,9.13-11.41,2.02-9.22-4.8-18.1-12.64-28.31-3.75-4.87-9.75-11.81-18.52-18.61-.23,12.8-.46,25.6-.69,38.4Z"/><path class="cls-6" d="M1703.24,347.91c-.65.85-5.82,7.78-4.29,17.23,1.01,6.22,4.78,12.62,10.86,14.88.32.12,7.67,2.71,13.32-2.07,6.63-5.62,6.25-17.5,5.82-31.15-.21-6.52-1.03-16.3-4.05-27.99-7.22,9.7-14.44,19.4-21.65,29.11Z"/><path class="cls-6" d="M1762.06,327.18c.98.01,8.89-.05,14.03-7.6,3.38-4.97,5.07-12.47,2.54-19.25-.13-.36-3.29-8.47-10.11-10.24-8.02-2.08-15.5,6.07-24.1,15.43-4.1,4.47-9.93,11.62-15.55,21.95,11.06-.09,22.13-.19,33.19-.28Z"/><path class="cls-6" d="M1754.53,351.2c.75.73,6.88,6.51,15,4.47,5.35-1.34,10.77-5.89,12.55-12.98.09-.37,2.12-8.95-2.17-15.34-5.05-7.51-15.29-6.74-27.07-5.85-5.62.42-14.05,1.65-24.07,5.47,8.59,8.07,17.17,16.15,25.76,24.22Z"/><path class="cls-7" d="M1735.73,344.22c.37.56,3.47,5.05,8.58,5.69,3.37.42,7.12-.89,8.94-4.38.1-.18,2.23-4.44.31-8.86-2.25-5.2-8.52-7-15.72-9.06-3.44-.99-8.65-2.14-15.1-2.22,4.33,6.28,8.66,12.55,12.99,18.83Z"/><path class="cls-7" d="M1722.88,347.2c-.01.65-.02,5.89,3.97,9.9,2.63,2.64,6.61,4.35,10.23,3.22.19-.06,4.52-1.5,5.5-5.88,1.15-5.15-3.15-10.75-8.08-17.19-2.36-3.08-6.13-7.51-11.6-12.06,0,7.34-.01,14.67-.02,22.01Z"/><path class="cls-7" d="M1743.7,315.56c.47-.34,4.2-3.19,4.08-8.71-.08-3.64-1.83-7.91-5.33-10.33-.18-.13-4.43-2.98-8.27-1.41-4.51,1.84-5.29,8.49-6.2,16.12-.43,3.65-.77,9.22.07,16.28,5.22-3.98,10.43-7.97,15.65-11.95Z"/><path class="cls-7" d="M1748.28,330c.6.09,5.48.74,8.63-3.15,2.08-2.56,3.11-6.71,1.55-10.82-.08-.22-2.03-5.14-6.23-6.74-4.94-1.88-9.54,2.15-14.82,6.77-2.52,2.21-6.1,5.81-9.56,11.24,6.81.9,13.62,1.79,20.43,2.69Z"/><path class="cls-7" d="M1715.53,311.51c-.37-.57-3.39-5.11-8.51-5.85-3.37-.49-7.15.74-9.03,4.19-.1.18-2.3,4.38-.46,8.83,2.17,5.23,8.42,7.15,15.6,9.35,3.43,1.05,8.63,2.31,15.1,2.51-4.23-6.34-8.47-12.69-12.7-19.03Z"/><path class="cls-7" d="M1728.45,308.79c.02-.65.12-5.88-3.81-9.96-2.59-2.68-6.55-4.47-10.2-3.41-.19.06-4.56,1.41-5.61,5.76-1.24,5.11,2.97,10.79,7.81,17.31,2.31,3.12,6.02,7.61,11.42,12.25.13-7.32.26-14.64.39-21.95Z"/><path class="cls-7" d="M1707.6,339.88c-.47.34-4.2,3.19-4.07,8.71.08,3.64,1.83,7.91,5.33,10.32.18.13,4.43,2.97,8.27,1.41,4.51-1.84,5.29-8.49,6.19-16.13.43-3.65.77-9.22-.07-16.28-5.21,3.99-10.43,7.97-15.64,11.96Z"/><path class="cls-7" d="M1703.01,325.44c-.6-.09-5.48-.74-8.63,3.15-2.08,2.56-3.11,6.71-1.54,10.82.08.22,2.03,5.14,6.24,6.74,4.94,1.88,9.54-2.15,14.82-6.78,2.52-2.21,6.1-5.81,9.55-11.25-6.81-.89-13.62-1.79-20.43-2.68Z"/><ellipse class="cls-2" cx="1728.68" cy="325.49" rx=".97" ry="1.12"/><ellipse class="cls-2" cx="1731.54" cy="321.19" rx=".97" ry="1.12"/><ellipse class="cls-2" cx="1723.84" cy="315.96" rx=".97" ry="1.12"/><ellipse class="cls-2" cx="1714.63" cy="331.1" rx=".97" ry="1.12"/><ellipse class="cls-2" cx="1720.93" cy="323.81" rx=".97" ry="1.12"/><ellipse class="cls-2" cx="1729.65" cy="338.39" rx=".97" ry="1.12"/><ellipse class="cls-2" cx="1714.63" cy="318.76" rx=".97" ry="1.12"/><ellipse class="cls-2" cx="1723.35" cy="330.54" rx=".97" ry="1.12"/><ellipse class="cls-2" cx="1734.98" cy="329.41" rx=".97" ry="1.12"/><ellipse class="cls-2" cx="1738.38" cy="319.32" rx=".97" ry="1.12"/><ellipse class="cls-2" cx="1717.54" cy="340.63" rx=".97" ry="1.12"/><path class="cls-6" d="M1651.62,431.38c.01-.63.03-5.7-3.75-9.03-2.49-2.2-6.27-3.32-9.71-1.73-.18.08-4.3,2.06-5.23,6.42-1.1,5.13,2.97,9.96,7.65,15.52,2.23,2.65,5.81,6.42,10.99,10.08.02-7.09.04-14.17.05-21.26Z"/><path class="cls-6" d="M1663.71,436.33c.37-.48,3.33-4.37,2.35-9.58-.65-3.43-2.91-6.93-6.48-8.11-.19-.06-4.51-1.41-7.76,1.3-3.82,3.19-3.49,9.76-3.11,17.3.18,3.6.75,9.01,2.62,15.44,4.13-5.45,8.26-10.9,12.38-16.36Z"/><path class="cls-6" d="M1629.06,448.23c-.57,0-5.2.02-8.2,4.2-1.98,2.75-2.96,6.9-1.49,10.65.08.2,1.92,4.69,5.91,5.67,4.69,1.15,9.06-3.35,14.08-8.53,2.4-2.47,5.8-6.43,9.09-12.14-6.46.05-12.93.1-19.39.15Z"/><path class="cls-6" d="M1633.47,434.94c-.44-.4-4.02-3.61-8.76-2.48-3.12.74-6.29,3.26-7.33,7.18-.05.21-1.24,4.95,1.26,8.49,2.95,4.16,8.93,3.73,15.82,3.24,3.29-.23,8.21-.91,14.06-3.02-5.01-4.47-10.03-8.94-15.04-13.41Z"/><path class="cls-6" d="M1649.61,466.98c-.02.63-.12,5.69,3.6,9.1,2.45,2.24,6.21,3.44,9.68,1.93.18-.08,4.33-1.97,5.33-6.31,1.18-5.1-2.81-10.02-7.39-15.67-2.19-2.7-5.7-6.54-10.82-10.3-.13,7.08-.27,14.17-.4,21.25Z"/><path class="cls-6" d="M1637.61,461.79c-.38.47-3.4,4.31-2.51,9.53.59,3.44,2.79,6.99,6.34,8.23.19.07,4.48,1.5,7.78-1.15,3.87-3.11,3.65-9.69,3.4-17.24-.12-3.61-.6-9.02-2.37-15.49-4.22,5.37-8.43,10.74-12.65,16.11Z"/><path class="cls-6" d="M1671.97,450.31c.57,0,5.2-.03,8.2-4.21,1.98-2.75,2.96-6.9,1.48-10.65-.08-.2-1.92-4.69-5.91-5.67-4.69-1.15-9.06,3.36-14.08,8.54-2.4,2.47-5.8,6.43-9.09,12.15,6.46-.05,12.93-.1,19.39-.16Z"/><path class="cls-6" d="M1667.58,463.61c.44.4,4.02,3.61,8.77,2.48,3.12-.74,6.29-3.26,7.33-7.18.05-.21,1.24-4.95-1.27-8.49-2.95-4.16-8.94-3.73-15.82-3.24-3.29.24-8.21.91-14.06,3.03,5.02,4.47,10.03,8.94,15.05,13.41Z"/><path class="cls-7" d="M1656.59,459.74c.22.31,2.03,2.8,5.01,3.15,1.97.23,4.16-.49,5.22-2.43.06-.1,1.3-2.46.18-4.9-1.32-2.88-4.98-3.87-9.19-5.01-2.01-.55-5.06-1.18-8.82-1.23,2.53,3.47,5.06,6.95,7.59,10.42Z"/><path class="cls-7" d="M1649.08,461.39c0,.36-.01,3.26,2.32,5.48,1.54,1.46,3.86,2.41,5.98,1.78.11-.03,2.64-.83,3.21-3.25.67-2.85-1.84-5.95-4.72-9.52-1.38-1.7-3.58-4.15-6.78-6.67,0,4.06,0,8.12-.01,12.18Z"/><path class="cls-7" d="M1661.25,443.88c.27-.19,2.46-1.76,2.38-4.82-.05-2.01-1.07-4.38-3.11-5.71-.11-.07-2.59-1.65-4.83-.78-2.64,1.02-3.09,4.7-3.62,8.92-.25,2.02-.45,5.1.04,9.01,3.05-2.2,6.09-4.41,9.14-6.61Z"/><path class="cls-7" d="M1663.92,451.88c.35.05,3.2.41,5.04-1.74,1.22-1.42,1.82-3.72.9-5.99-.05-.12-1.19-2.84-3.64-3.73-2.89-1.04-5.57,1.19-8.66,3.75-1.47,1.22-3.57,3.21-5.59,6.22,3.98.5,7.96.99,11.94,1.49Z"/><path class="cls-7" d="M1644.79,441.64c-.21-.31-1.98-2.83-4.97-3.24-1.97-.27-4.18.41-5.28,2.32-.06.1-1.35,2.42-.27,4.89,1.27,2.9,4.92,3.96,9.12,5.17,2,.58,5.05,1.28,8.82,1.39-2.47-3.51-4.95-7.02-7.42-10.53Z"/><path class="cls-7" d="M1652.34,440.13c.01-.36.07-3.25-2.23-5.51-1.51-1.49-3.83-2.48-5.96-1.89-.11.03-2.66.78-3.28,3.19-.72,2.83,1.74,5.97,4.57,9.58,1.35,1.72,3.52,4.21,6.67,6.78.08-4.05.15-8.1.23-12.15Z"/><path class="cls-7" d="M1640.15,457.34c-.27.19-2.46,1.76-2.38,4.82.05,2.01,1.07,4.38,3.11,5.71.11.07,2.59,1.65,4.83.78,2.63-1.02,3.09-4.7,3.62-8.93.25-2.02.45-5.1-.04-9.01-3.05,2.21-6.09,4.41-9.14,6.62Z"/><path class="cls-7" d="M1637.48,449.35c-.35-.05-3.2-.41-5.04,1.75-1.21,1.42-1.82,3.72-.9,5.99.05.12,1.19,2.84,3.64,3.73,2.89,1.04,5.57-1.19,8.66-3.75,1.47-1.22,3.57-3.21,5.58-6.23-3.98-.49-7.96-.99-11.94-1.48Z"/><ellipse class="cls-2" cx="1652.47" cy="449.38" rx=".57" ry=".62"/><ellipse class="cls-2" cx="1654.14" cy="447" rx=".57" ry=".62"/><ellipse class="cls-2" cx="1649.64" cy="444.1" rx=".57" ry=".62"/><ellipse class="cls-2" cx="1644.26" cy="452.48" rx=".57" ry=".62"/><ellipse class="cls-2" cx="1647.94" cy="448.45" rx=".57" ry=".62"/><ellipse class="cls-2" cx="1653.04" cy="456.51" rx=".57" ry=".62"/><ellipse class="cls-2" cx="1644.26" cy="445.65" rx=".57" ry=".62"/><ellipse class="cls-2" cx="1649.36" cy="452.17" rx=".57" ry=".62"/><ellipse class="cls-2" cx="1656.16" cy="451.55" rx=".57" ry=".62"/><ellipse class="cls-2" cx="1658.14" cy="445.96" rx=".57" ry=".62"/><ellipse class="cls-2" cx="1645.96" cy="457.76" rx=".57" ry=".62"/><path class="cls-6" d="M1850.43,113.95c0-.61.02-5.51-3.08-8.74-2.04-2.12-5.14-3.21-7.97-1.68-.15.08-3.53,1.99-4.29,6.21-.9,4.96,2.44,9.64,6.28,15.01,1.83,2.57,4.77,6.22,9.02,9.76.01-6.86.03-13.71.04-20.57Z"/><path class="cls-6" d="M1860.35,118.75c.31-.46,2.73-4.23,1.93-9.27-.53-3.32-2.39-6.7-5.32-7.85-.15-.06-3.7-1.36-6.37,1.26-3.14,3.09-2.87,9.44-2.56,16.74.15,3.49.61,8.71,2.15,14.94,3.39-5.28,6.78-10.55,10.17-15.83Z"/><path class="cls-6" d="M1831.91,130.26c-.47,0-4.27.02-6.73,4.07-1.62,2.66-2.43,6.68-1.22,10.31.06.19,1.57,4.54,4.85,5.48,3.85,1.11,7.44-3.25,11.56-8.25,1.97-2.39,4.76-6.22,7.46-11.75-5.31.05-10.61.1-15.92.14Z"/><path class="cls-6" d="M1835.52,117.4c-.36-.39-3.3-3.49-7.19-2.4-2.56.72-5.17,3.15-6.02,6.95-.04.2-1.02,4.79,1.04,8.22,2.42,4.02,7.33,3.61,12.98,3.14,2.7-.23,6.74-.88,11.54-2.93-4.12-4.33-8.23-8.65-12.35-12.98Z"/><path class="cls-6" d="M1848.77,148.4c-.02.61-.1,5.51,2.96,8.81,2.01,2.17,5.1,3.33,7.94,1.86.15-.08,3.55-1.91,4.38-6.11.97-4.94-2.3-9.69-6.06-15.16-1.8-2.61-4.68-6.33-8.88-9.97-.11,6.85-.22,13.71-.33,20.56Z"/><path class="cls-6" d="M1838.92,143.38c-.31.45-2.79,4.17-2.06,9.22.48,3.33,2.29,6.76,5.21,7.97.15.06,3.68,1.45,6.39-1.11,3.18-3.01,3-9.37,2.79-16.68-.1-3.49-.49-8.73-1.94-14.99-3.46,5.2-6.92,10.39-10.38,15.59Z"/><path class="cls-6" d="M1867.13,132.27c.47,0,4.27-.02,6.73-4.07,1.62-2.66,2.43-6.68,1.22-10.31-.06-.19-1.58-4.54-4.85-5.48-3.85-1.11-7.43,3.25-11.56,8.26-1.97,2.39-4.76,6.22-7.46,11.75,5.31-.05,10.61-.1,15.92-.15Z"/><path class="cls-6" d="M1863.52,145.14c.36.39,3.3,3.49,7.19,2.4,2.56-.72,5.16-3.15,6.02-6.95.04-.2,1.02-4.79-1.04-8.22-2.42-4.02-7.33-3.61-12.98-3.13-2.7.23-6.74.88-11.54,2.93,4.12,4.32,8.23,8.65,12.35,12.97Z"/><path class="cls-7" d="M1854.5,141.4c.18.3,1.66,2.71,4.12,3.05,1.62.23,3.41-.48,4.29-2.35.05-.1,1.07-2.38.15-4.74-1.08-2.78-4.09-3.75-7.54-4.85-1.65-.53-4.15-1.15-7.24-1.19,2.08,3.36,4.15,6.72,6.23,10.08Z"/><path class="cls-7" d="M1848.34,143c0,.35-.01,3.16,1.9,5.3,1.26,1.41,3.17,2.33,4.91,1.72.09-.03,2.17-.8,2.64-3.15.55-2.76-1.51-5.76-3.88-9.21-1.13-1.65-2.94-4.02-5.56-6.46,0,3.93,0,7.86,0,11.79Z"/><path class="cls-7" d="M1858.32,126.05c.22-.18,2.02-1.71,1.96-4.67-.04-1.95-.88-4.23-2.55-5.53-.09-.07-2.13-1.59-3.97-.76-2.16.98-2.54,4.54-2.97,8.63-.21,1.95-.37,4.94.03,8.72,2.5-2.13,5-4.27,7.5-6.4Z"/><path class="cls-7" d="M1860.52,133.79c.29.05,2.63.4,4.14-1.69,1-1.37,1.49-3.6.74-5.79-.04-.12-.97-2.75-2.99-3.61-2.37-1.01-4.58,1.15-7.11,3.63-1.21,1.18-2.93,3.11-4.58,6.02,3.27.48,6.53.96,9.8,1.44Z"/><path class="cls-7" d="M1844.81,123.88c-.18-.3-1.63-2.74-4.08-3.13-1.62-.26-3.43.4-4.33,2.25-.05.1-1.11,2.35-.22,4.73,1.04,2.8,4.04,3.83,7.48,5.01,1.65.56,4.14,1.24,7.24,1.34-2.03-3.4-4.06-6.8-6.09-10.19Z"/><path class="cls-7" d="M1851.01,122.42c.01-.35.06-3.15-1.83-5.33-1.24-1.44-3.14-2.4-4.89-1.83-.09.03-2.19.75-2.69,3.08-.59,2.74,1.43,5.78,3.75,9.27,1.11,1.67,2.89,4.07,5.48,6.56.06-3.92.12-7.84.19-11.76Z"/><path class="cls-7" d="M1841.01,139.07c-.22.18-2.02,1.71-1.95,4.67.04,1.95.88,4.23,2.56,5.53.09.07,2.13,1.59,3.97.75,2.16-.99,2.54-4.55,2.97-8.64.21-1.95.37-4.94-.04-8.72-2.5,2.13-5,4.27-7.5,6.4Z"/><path class="cls-7" d="M1838.81,131.34c-.29-.05-2.63-.39-4.14,1.69-1,1.37-1.49,3.6-.74,5.79.04.12.97,2.75,2.99,3.61,2.37,1.01,4.57-1.15,7.11-3.63,1.21-1.18,2.93-3.11,4.58-6.02-3.27-.48-6.53-.96-9.8-1.44Z"/><ellipse class="cls-2" cx="1851.12" cy="131.37" rx=".46" ry=".6"/><ellipse class="cls-2" cx="1852.49" cy="129.07" rx=".46" ry=".6"/><ellipse class="cls-2" cx="1848.8" cy="126.26" rx=".46" ry=".6"/><ellipse class="cls-2" cx="1844.38" cy="134.37" rx=".46" ry=".6"/><ellipse class="cls-2" cx="1847.41" cy="130.47" rx=".46" ry=".6"/><ellipse class="cls-2" cx="1851.59" cy="138.27" rx=".46" ry=".6"/><ellipse class="cls-2" cx="1844.38" cy="127.76" rx=".46" ry=".6"/><ellipse class="cls-2" cx="1848.57" cy="134.07" rx=".46" ry=".6"/><ellipse class="cls-2" cx="1854.15" cy="133.47" rx=".46" ry=".6"/><ellipse class="cls-2" cx="1855.77" cy="128.06" rx=".46" ry=".6"/><ellipse class="cls-2" cx="1845.78" cy="139.48" rx=".46" ry=".6"/><path class="cls-6" d="M76.51,306.88c.01-.61.03-5.51-3.75-8.74-2.49-2.12-6.25-3.21-9.69-1.68-.18.08-4.29,1.99-5.22,6.21-1.09,4.96,2.96,9.64,7.63,15.01,2.23,2.57,5.79,6.22,10.97,9.76.02-6.86.04-13.71.05-20.57Z"/><path class="cls-6" d="M88.57,311.67c.37-.46,3.32-4.23,2.34-9.27-.65-3.32-2.9-6.7-6.47-7.85-.19-.06-4.5-1.36-7.74,1.26-3.81,3.09-3.49,9.44-3.11,16.74.18,3.49.75,8.71,2.62,14.94,4.12-5.28,8.24-10.55,12.36-15.83Z"/><path class="cls-6" d="M54,323.19c-.57,0-5.19.02-8.18,4.07-1.97,2.66-2.96,6.68-1.48,10.31.08.19,1.91,4.54,5.89,5.48,4.68,1.11,9.04-3.25,14.05-8.25,2.39-2.39,5.79-6.22,9.07-11.75-6.45.05-12.9.1-19.35.14Z"/><path class="cls-6" d="M58.39,310.32c-.44-.39-4.01-3.49-8.75-2.4-3.12.72-6.28,3.15-7.32,6.95-.05.2-1.24,4.79,1.26,8.22,2.94,4.02,8.92,3.61,15.78,3.14,3.28-.23,8.19-.88,14.03-2.93-5-4.33-10.01-8.65-15.01-12.98Z"/><path class="cls-6" d="M74.5,341.33c-.02.61-.12,5.51,3.6,8.81,2.45,2.17,6.2,3.33,9.66,1.86.18-.08,4.32-1.91,5.32-6.11,1.18-4.94-2.8-9.69-7.37-15.16-2.18-2.61-5.69-6.33-10.8-9.97-.13,6.85-.27,13.71-.4,20.56Z"/><path class="cls-6" d="M62.52,336.3c-.38.45-3.39,4.17-2.5,9.22.59,3.33,2.79,6.76,6.33,7.97.19.06,4.47,1.45,7.76-1.11,3.87-3.01,3.65-9.37,3.39-16.68-.12-3.49-.6-8.73-2.36-14.99-4.21,5.2-8.42,10.39-12.63,15.59Z"/><path class="cls-6" d="M96.82,325.2c.57,0,5.19-.02,8.18-4.07,1.97-2.66,2.96-6.68,1.48-10.31-.08-.19-1.92-4.54-5.9-5.48-4.68-1.11-9.04,3.25-14.05,8.26-2.39,2.39-5.79,6.22-9.07,11.75,6.45-.05,12.9-.1,19.35-.15Z"/><path class="cls-6" d="M92.43,338.06c.44.39,4.01,3.49,8.75,2.4,3.12-.72,6.28-3.15,7.32-6.95.05-.2,1.24-4.79-1.26-8.22-2.94-4.02-8.92-3.61-15.78-3.13-3.28.23-8.19.88-14.03,2.93,5.01,4.32,10.01,8.65,15.02,12.97Z"/><path class="cls-7" d="M81.47,334.32c.22.3,2.02,2.71,5,3.05,1.96.23,4.15-.48,5.21-2.35.06-.1,1.3-2.38.18-4.74-1.31-2.78-4.97-3.75-9.17-4.85-2.01-.53-5.04-1.15-8.81-1.19,2.52,3.36,5.05,6.72,7.57,10.08Z"/><path class="cls-7" d="M73.97,335.92c0,.35-.01,3.16,2.32,5.3,1.53,1.41,3.85,2.33,5.97,1.72.11-.03,2.64-.8,3.21-3.15.67-2.76-1.84-5.76-4.71-9.21-1.37-1.65-3.57-4.02-6.76-6.46,0,3.93,0,7.86-.01,11.79Z"/><path class="cls-7" d="M86.11,318.98c.27-.18,2.45-1.71,2.38-4.67-.05-1.95-1.07-4.23-3.11-5.53-.11-.07-2.58-1.59-4.82-.76-2.63.98-3.09,4.54-3.61,8.63-.25,1.95-.45,4.94.04,8.72,3.04-2.13,6.08-4.27,9.12-6.4Z"/><path class="cls-7" d="M88.78,326.71c.35.05,3.19.4,5.03-1.69,1.21-1.37,1.81-3.6.9-5.79-.05-.12-1.18-2.75-3.63-3.61-2.88-1.01-5.56,1.15-8.64,3.63-1.47,1.18-3.56,3.11-5.57,6.02,3.97.48,7.94.96,11.91,1.44Z"/><path class="cls-7" d="M69.69,316.81c-.21-.3-1.98-2.74-4.96-3.13-1.96-.26-4.17.4-5.27,2.25-.06.1-1.34,2.35-.27,4.73,1.27,2.8,4.91,3.83,9.1,5.01,2,.56,5.03,1.24,8.8,1.34-2.47-3.4-4.94-6.8-7.41-10.19Z"/><path class="cls-7" d="M77.23,315.35c.01-.35.07-3.15-2.22-5.33-1.51-1.44-3.82-2.4-5.95-1.83-.11.03-2.66.75-3.27,3.08-.72,2.74,1.73,5.78,4.56,9.27,1.35,1.67,3.51,4.07,6.66,6.56.08-3.92.15-7.84.23-11.76Z"/><path class="cls-7" d="M65.07,332c-.27.18-2.45,1.71-2.38,4.67.05,1.95,1.07,4.23,3.11,5.53.11.07,2.58,1.59,4.82.75,2.63-.99,3.09-4.55,3.61-8.64.25-1.95.45-4.94-.04-8.72-3.04,2.13-6.08,4.27-9.12,6.4Z"/><path class="cls-7" d="M62.39,324.27c-.35-.05-3.19-.39-5.03,1.69-1.21,1.37-1.81,3.6-.9,5.79.05.12,1.18,2.75,3.64,3.61,2.88,1.01,5.56-1.15,8.64-3.63,1.47-1.18,3.56-3.11,5.57-6.02-3.97-.48-7.94-.96-11.91-1.44Z"/><ellipse class="cls-2" cx="77.36" cy="324.29" rx=".57" ry=".6"/><ellipse class="cls-2" cx="79.02" cy="321.99" rx=".57" ry=".6"/><ellipse class="cls-2" cx="74.53" cy="319.19" rx=".57" ry=".6"/><ellipse class="cls-2" cx="69.16" cy="327.3" rx=".57" ry=".6"/><ellipse class="cls-2" cx="72.84" cy="323.39" rx=".57" ry=".6"/><ellipse class="cls-2" cx="77.92" cy="331.2" rx=".57" ry=".6"/><ellipse class="cls-2" cx="69.16" cy="320.69" rx=".57" ry=".6"/><ellipse class="cls-2" cx="74.25" cy="327" rx=".57" ry=".6"/><ellipse class="cls-2" cx="81.03" cy="326.4" rx=".57" ry=".6"/><ellipse class="cls-2" cx="83.01" cy="320.99" rx=".57" ry=".6"/><ellipse class="cls-2" cx="70.86" cy="332.4" rx=".57" ry=".6"/><path class="cls-6" d="M156.19,378.45s-20.72,17.49-2.37,35.23c0,0,21.38-14.21,2.37-35.23Z"/><line class="cls-1" x1="156.19" y1="378.45" x2="153.82" y2="413.68"/><path class="cls-6" d="M241.68,492.43s-19.14,19.2.66,35.31c0,0,20.09-15.99-.66-35.31Z"/><line class="cls-1" x1="241.68" y1="492.43" x2="242.34" y2="527.73"/><path class="cls-6" d="M90.63,164.29s-21.63,9.72-8,27.15c0,0,21.69-7.03,8-27.15Z"/><line class="cls-1" x1="90.63" y1="164.29" x2="82.63" y2="191.44"/><path class="cls-6" d="M1738.61,402.34s-18.55,19.77,1.74,35.27c0,0,19.59-16.6-1.74-35.27Z"/><line class="cls-1" x1="1738.61" y1="402.34" x2="1740.35" y2="437.61"/><path class="cls-6" d="M1668.67,492.34s-14.5,12.24-1.66,24.66c0,0,14.96-9.95,1.66-24.66Z"/><line class="cls-1" x1="1668.67" y1="492.34" x2="1667.02" y2="517"/><path class="cls-6" d="M1649.01,579.34s-13.12,9.26-1.5,18.66c0,0,13.54-7.53,1.5-18.66Z"/><line class="cls-1" x1="1649.01" y1="579.34" x2="1647.51" y2="598"/><path class="cls-6" d="M1614.66,210.34s-20.72,17.49-2.37,35.23c0,0,21.38-14.21,2.37-35.23Z"/><line class="cls-1" x1="1614.66" y1="210.34" x2="1612.29" y2="245.57"/><path class="cls-12" d="M624.36,542.14c1.7,7.18,6.51,25.24,11.44,43.73,5.29,19.85,10.73,40.2,12.61,48.13,61.94,0,121.29-1.29,183.23-1.29,6.44-30.19,12.89-60.38,19.33-90.56h-226.62Z"/><path class="cls-13" d="M847.2,570.66h-220.79c-2.1,0-3.8-1.71-3.8-3.81v-22.11c0-2.1,1.7-3.81,3.8-3.81h220.79c2.1,0,3.8,1.71,3.8,3.81v22.11c0,2.1-1.7,3.81-3.8,3.81Z"/><line class="cls-3" x1="736.8" y1="632.71" x2="735.94" y2="570.66"/><line class="cls-3" x1="761.32" y1="632.71" x2="760.45" y2="570.66"/><line class="cls-3" x1="713.58" y1="632.71" x2="712.71" y2="570.66"/><line class="cls-3" x1="687.77" y1="632.71" x2="686.9" y2="570.66"/><line class="cls-3" x1="660.67" y1="632.71" x2="659.8" y2="570.66"/><line class="cls-3" x1="787.13" y1="632.71" x2="786.26" y2="570.66"/><line class="cls-3" x1="812.93" y1="632.71" x2="812.07" y2="570.66"/><path class="cls-11" d="M841.97,586.17c-68.72-.1-137.44-.2-206.16-.3l2.19,8.2c67.13-.05,134.26-.09,201.39-.14.86-2.59,1.72-5.17,2.58-7.76Z"/><path class="cls-11" d="M836.81,609.68c-64.95-.1-129.9-.2-194.84-.3l2.07,8.2c63.45-.05,126.89-.09,190.34-.14.81-2.59,1.63-5.17,2.44-7.76Z"/><path class="cls-4" d="M749.49,498.18l-7.13-5.49c-1.14-.88-2.77-.66-3.64.48l-40.88,53.26c-.87,1.14-.66,2.77.48,3.65l7.13,5.49c1.14.88,2.77.66,3.64-.48l40.88-53.26c.87-1.14.66-2.77-.48-3.65Z"/><path class="cls-5" d="M750.53,493.52l-7.06,5.58c-1.13.89-1.32,2.53-.43,3.66l41.54,52.74c.89,1.13,2.52,1.32,3.65.43l7.06-5.58c1.13-.89,1.32-2.53.43-3.66l-41.54-52.74c-.89-1.13-2.52-1.32-3.65-.43Z"/></svg>