<?xml version="1.0" encoding="UTF-8"?><svg id="Layer_1" xmlns="http://www.w3.org/2000/svg" viewBox="0 0 133.09 183.22"><defs><style>.cls-1{stroke:#f69220;}.cls-1,.cls-2,.cls-3{stroke-miterlimit:10;}.cls-1,.cls-3{fill:none;}.cls-4{fill:#000;}.cls-4,.cls-5,.cls-6,.cls-7{stroke-width:0px;}.cls-2{stroke-width:3px;}.cls-2,.cls-5{fill:#f69220;}.cls-2,.cls-3{stroke:#000;}.cls-3{stroke-linecap:round;stroke-width:4px;}.cls-6{fill:#d76b27;}.cls-7{fill:#fff;}</style></defs><path class="cls-2" d="M37.66,97.7c10.24.12,17.14,10.67,12.15,19.88-6.41,11.85-26.65,10.25-35.81,2.96-15.75-12.54-5.36-34.83,7.9-44.66"/><path class="cls-2" d="M22.51,77.7c-1.79-1.2-13.81-9.53-15.76-25.46-2.13-17.41,9.59-29.04,10.91-30.31-.01,0-4.1-1.16-6.06-3.64-2.12-2.68-1.37-6.45-1.21-7.27.19-.95.81-4.12,3.64-6.06,2.52-1.73,5.27-1.43,7.27-1.21,3.29.36,5.83,1.72,7.47,2.87.39.27.73.53,1.01.76,0,0,33-13.27,69.23.03"/><path class="cls-2" d="M11.56,118.48s-27.24,30.13,7.91,47.1c0,0,13,9,35.37-.25.85-.35,1.65-.71,1.65-.71,1.88-.9,3.28-1.92,4.2-2.68,6.52-7.99,6.31-18.68.67-24.64-5.63-5.96-14.41-4.79-15.35-4.65"/><path class="cls-2" d="M94.02,97.94c-10.23.45-16.79,11.21-11.51,20.26,6.79,11.64,26.96,9.39,35.88,1.81,15.34-13.03,4.25-34.99-9.32-44.39"/><path class="cls-2" d="M97.66,8.6c2.16-1.56,5.46-3.39,9.71-3.87,2.38-.27,4.9-.56,7.31.98,2.88,1.85,3.61,5,3.83,5.94.19.81,1.05,4.56-.98,7.31-1.88,2.54-5.93,3.82-5.94,3.83,1.36,1.22,13.44,12.47,11.87,29.94-1.44,15.98-13.18,24.69-14.94,25.95"/><path class="cls-2" d="M37.66,95.27c14.55,0,13.81,16.11,13.81,16.11,0,0,.74,12.99-14.5,14.47s-24.77-2.7-30.48-17.23c-5.71-14.53,14.8-33.35,14.8-33.35-32.94-22.48-3.64-53.34-3.64-53.34-5.45-.61-11.52-7.88-5.59-15.04,5.93-7.16,17.09,0,17.09,0,0,0,31.81-12.17,69.85.52,0,0,16.71-9.09,19.5,4.23,2.79,13.32-8.86,10.59-8.86,10.59,0,0,17.18,12.18,13.8,30.48s-12.83,24.97-12.83,24.97c0,0,24.52,18.53,10.85,39.15-.23.35-.47.69-.72,1.04,0,0,28.19,29.24-6.41,47.32,0,0-12.71,9.41-35.36.88-.86-.32-1.67-.66-1.67-.66-1.9-.84-3.34-1.82-4.28-2.54-6.77-7.78-6.9-18.47-1.46-24.6,5.44-6.14,14.25-5.25,15.2-5.14"/><path class="cls-2" d="M54.85,165.33s11.54,5.5,24.15.75c0,0-9.39,5.06-24.15-.75Z"/><path class="cls-2" d="M121.48,116.84c-.86,1.34-6.56,9.87-17.15,11.16-.91.11-13.74,1.48-19.4-7.27-2.05-3.17-2.4-6.5-2.42-8.49-.37-6.11,2.26-11.73,6.93-14.47,3.28-1.92,6.61-1.87,8.22-1.72"/><path class="cls-2" d="M55.28,165.84c0-.15.91-.09,1.77-.25,2.76-.53,6.31-3.6,9.47-15.15.64,3.69,2.17,8.74,6.29,12.73,2.1,2.03,3.86,2.81,3.64,3.64-.74,2.7-21.21-.26-21.17-.96Z"/><line class="cls-2" x1="123.6" y1="113.58" x2="119.34" y2="119.74"/><path class="cls-5" d="M84.33,131.03l-31.52-23.72s.95,7.27-1.34,11.86-8.56,8.5-16.34,8.97"/><path class="cls-5" d="M52.81,107.32c2.42-2.95,17.02,12.43,17.02,12.43l-17.08-11.61"/><path class="cls-5" d="M57.16,130.24c1.04.44,1.93,1.15,2.95,1.6.88.39,1.79.62,2.62,1.13.78.48,1.18,1.27,1.78,1.94.34.38,1.58,1.17,1.47,1.57l2.89.8c.33-1.82,1.91-3.08,3.35-4.09,1.69-1.19,3.41-2.74,5.43-3.33l-.8-2.89c-2.42.93-4.99,1.55-7.28,2.79-.77.41-1.65,1.31-2.55.9-.46-.21-.88-.54-1.32-.79-.23-.13-.86-.45-.86-.45l-1.05,1.85c-.19.05.05,0,.12.02.15.06.33.08.48.12.39.1.78.23,1.17.34.94.25,1.95.39,2.9.15,1.87-.48,1.08-3.38-.8-2.89-.7.18-1.57-.23-2.23-.42-.79-.22-1.62-.41-2.43-.2s-1.26,1.08-1.05,1.85c.39,1.42,1.58,1.84,2.72,2.53,1.36.84,2.71,1.39,4.29.76,1.38-.55,2.57-1.43,3.97-1.96,1.56-.59,3.17-1.07,4.73-1.67,1.76-.68,1.09-3.45-.8-2.89-2.45.72-4.56,2.46-6.59,3.95-1.89,1.39-3.84,3.14-4.28,5.56-.34,1.87,2.38,2.69,2.89.8.34-1.27-.06-2.42-.98-3.33-.41-.4-.88-.72-1.26-1.16-.41-.46-.72-1.01-1.15-1.45-.87-.89-2.06-1.45-3.21-1.87-1.29-.47-2.35-1.28-3.61-1.82-.75-.32-1.6-.22-2.05.54-.37.63-.21,1.74.54,2.05h0Z"/><path class="cls-5" d="M38.01,135.34c.86-.85,1.78-1.62,2.72-2.38.08-.06.07-.06-.03.02.06-.04.11-.09.17-.13.13-.1.26-.2.39-.3.22-.17.45-.33.67-.5.49-.36.98-.71,1.47-1.06.53-.38.91-1.02.69-1.69-.2-.61-.77-1.14-1.45-1.1-1.2.06-2.13.67-3.03,1.4-.18.15-.36.3-.53.45-.08.07-.17.14-.25.21-.06.05-.35.28-.02.02-.19.15-.38.29-.57.45-.04.03-.3.24-.11.09s-.1.07-.14.1c-.16.11-.31.22-.48.31-.04.02-.09.05-.13.07-.1.05-.06.03.14-.05-.04.02-.08.03-.13.04-.12.03-.05.03.2-.01-.25,0,.33.13.08.02l.78,1.94c-.19.22-.23.28-.12.17.16-.17-.26.16-.1.08.07-.04.13-.09.2-.13.78-.49,1.6-.9,2.36-1.42.51-.34.8-.87.72-1.49s-.5-1.07-1.07-1.25c-.94-.28-1.91-.25-2.88-.16-.42.04-.85.08-1.28.07-.1,0-.21,0-.31-.01-.29-.01.14.05-.03,0-.22-.06-.44-.11-.65-.2v2.89c.45-.16.91-.26,1.38-.34.29-.05-.12,0,.06,0,.11,0,.22-.02.33-.04.25-.02.49-.04.74-.06.96-.06,1.92-.08,2.87-.21.41-.06.75-.13,1.06-.44.26-.26.46-.69.44-1.06-.03-.72-.67-1.61-1.5-1.5-2.05.27-4.2.07-6.18.75-.61.21-1.13.76-1.1,1.45.03.72.46,1.18,1.1,1.45.88.36,1.87.35,2.81.28.43-.04.86-.08,1.29-.09.21,0,.43.02.64.02.17,0-.24-.07.04,0,.12.03.25.06.37.1l-.36-2.74c-.86.57-1.82,1.01-2.65,1.61-.67.48-1.2,1.18-.95,2.07.27.96,1.29,1.34,2.2,1.22.6-.08,1.15-.38,1.63-.73.27-.19.52-.4.78-.6.08-.06.16-.12.23-.18-.46.39.13-.1.23-.18.2-.16.39-.33.59-.49.1-.09.21-.18.31-.26.06-.05.12-.1.18-.15-.13.1-.16.12-.07.05.22-.16.44-.31.68-.43.34-.17-.18.02.09-.04.07-.02.14-.04.2-.05-.23.02-.26.03-.09.02l-.76-2.8c-2.08,1.5-4.18,3-6,4.81-.56.55-.6,1.57,0,2.12s1.53.59,2.12,0h0Z"/><path class="cls-5" d="M44.8,132.58c.03-.55-.06-1.12,0-1.67.01-.26.07-.51.16-.75-.42.14-.55.26-.38.36.06.13,1.25-.05,1.37-.07.48-.09.9-.26,1.35-.45.9-.38,1.62-.37,2.58-.4,1.08-.04,2.16-.18,3.24-.16,2.12.03,3.69.92,5.56,1.77.9.41,1.87.64,2.79.98.34.13,1.5.52,1.57.71l1.45-1.9c-.81.02-1.5,0-2.14-.55l-1.46,2.51c1.15.23,2.02.98,2.66,1.92.68,1,1.85,2.01,2.14,3.21.46,1.87,3.35,1.08,2.89-.8-.41-1.68-1.83-3.11-2.82-4.48s-2.45-2.43-4.07-2.75c-1.34-.26-2.69,1.44-1.46,2.51s2.59,1.46,4.26,1.43c.91-.02,1.79-.96,1.45-1.9-.8-2.21-3.45-2.68-5.41-3.38-1.27-.45-2.41-1.22-3.7-1.66s-2.71-.64-4.1-.62-2.67.12-4,.17c-.72.03-1.39.14-2.05.41-.58.24-1.04.48-1.67.51-1.02.04-1.96.12-2.56,1.06-.78,1.21-.56,2.64-.63,4-.09,1.93,2.91,1.93,3,0h0Z"/><path class="cls-5" d="M80.82,127.29c-2.45,0-4.88,1.26-6.94,2.45-.53.3-1.09.53-1.62.83s-1.01.68-1.52,1.01c-.54.35-1.08.66-1.55,1.1-.41.38-.74.83-1.11,1.24-.54.6-.59,1.53,0,2.12.55.55,1.58.6,2.12,0,.32-.35.62-.73.95-1.08.37-.38.63-.49,1.11-.8s.89-.63,1.35-.91c.52-.31,1.08-.53,1.61-.83.91-.51,1.77-1.04,2.75-1.41.52-.2,1.04-.38,1.57-.53.23-.06.47-.12.7-.17.17-.03.27-.04.57-.04,1.93,0,1.93-2.99,0-3h0Z"/><path class="cls-5" d="M49.56,129.9c.91.05,1.74-.24,2.63-.33.69-.07,1.41.16,2.07.33.73.19,1.43.35,2.06.75.77.49,1.52.82,2.4,1.08,1.29.4,2.4,1.1,3.17,2.21.98,1.41,2.11,2.5,3.75,3.08.72.25,1.7-.29,1.85-1.05.09-.47.09-.85,0-1.32-.39-1.89-3.29-1.09-2.89.8l.06.27v-.8l-.05.25,1.85-1.05c-1.43-.5-1.93-1.93-2.89-2.95-1.11-1.18-2.75-1.95-4.28-2.4-.77-.23-1.32-.7-2.02-1.06-.76-.38-1.62-.57-2.44-.77s-1.63-.41-2.45-.38c-.95.03-1.85.39-2.8.34-1.93-.1-1.92,2.9,0,3h0Z"/><path class="cls-5" d="M33.88,130.82s.01.01.02.02c.05.04.11.08.16.13.05.04.1.08.16.12.02.01.04.02.06.03.15.07.31.13.47.19l-.36-.15s.07.03.1.05c.14.07.29.13.43.19.03.01.07.02.11.03.02,0,.03,0,.05,0,.14.02.29.04.43.06s.29,0,.43,0c.21,0,.4-.04.58-.13.19-.06.35-.16.48-.31.15-.14.25-.3.31-.48.09-.18.14-.37.13-.58l-.05-.4c-.07-.25-.2-.47-.39-.66l-.3-.23c-.23-.14-.49-.2-.76-.2-.16,0-.31.02-.47,0l.4.05c-.06,0-.11-.02-.16-.04l.36.15c-.05-.02-.1-.05-.15-.08-.16-.07-.32-.13-.48-.2l.36.15s-.04-.02-.06-.04l.3.23s-.02-.02-.03-.03c-.14-.15-.3-.25-.48-.31-.18-.09-.37-.14-.58-.13-.21,0-.4.04-.58.13-.19.06-.35.16-.48.31l-.23.3c-.14.23-.2.49-.2.76l.05.4c.07.25.2.47.39.66h0Z"/><path class="cls-5" d="M44.22,133.65c1.93,0,1.93-3,0-3s-1.93,3,0,3h0Z"/><path class="cls-5" d="M44.11,132.57c1.93,0,1.93-3,0-3s-1.93,3,0,3h0Z"/><path class="cls-5" d="M46.58,130.37c1.93,0,1.93-3,0-3s-1.93,3,0,3h0Z"/><path class="cls-5" d="M48.05,130.33c1.93,0,1.93-3,0-3s-1.93,3,0,3h0Z"/><path class="cls-5" d="M48.79,130.29c1.93,0,1.93-3,0-3s-1.93,3,0,3h0Z"/><path class="cls-5" d="M50.3,130.29c1.93,0,1.93-3,0-3s-1.93,3,0,3h0Z"/><path class="cls-5" d="M52.58,130.56c1.93,0,1.93-3,0-3s-1.93,3,0,3h0Z"/><path class="cls-5" d="M54.75,130.99c1.93,0,1.93-3,0-3s-1.93,3,0,3h0Z"/><path class="cls-5" d="M56.22,131.22c1.93,0,1.93-3,0-3s-1.93,3,0,3h0Z"/><path class="cls-5" d="M57.34,131.91c1.93,0,1.93-3,0-3s-1.93,3,0,3h0Z"/><path class="cls-5" d="M58.34,132.18c1.93,0,1.93-3,0-3s-1.93,3,0,3h0Z"/><path class="cls-5" d="M66.16,138.8c1.93,0,1.93-3,0-3s-1.93,3,0,3h0Z"/><path class="cls-5" d="M65.66,137.99c1.93,0,1.93-3,0-3s-1.93,3,0,3h0Z"/><path class="cls-5" d="M64.88,137.37c1.93,0,1.93-3,0-3s-1.93,3,0,3h0Z"/><path class="cls-5" d="M64.11,136.17c1.93,0,1.93-3,0-3s-1.93,3,0,3h0Z"/><path class="cls-5" d="M35.67,131.14c1.93,0,1.93-3,0-3s-1.93,3,0,3h0Z"/><path class="cls-5" d="M36.49,131.14c1.93,0,1.93-3,0-3s-1.93,3,0,3h0Z"/><path class="cls-5" d="M37.22,131.02c1.93,0,1.93-3,0-3s-1.93,3,0,3h0Z"/><path class="cls-5" d="M38.07,130.91c1.93,0,1.93-3,0-3s-1.93,3,0,3h0Z"/><path class="cls-5" d="M39,130.79c1.93,0,1.93-3,0-3s-1.93,3,0,3h0Z"/><path class="cls-5" d="M39.89,130.75c1.93,0,1.93-3,0-3s-1.93,3,0,3h0Z"/><path class="cls-5" d="M39.77,130.75c1.93,0,1.93-3,0-3s-1.93,3,0,3h0Z"/><path class="cls-5" d="M66.7,139.76s.04-5,0-5-.04,5,0,5h0Z"/><path class="cls-5" d="M66.74,141.46s.04-5,0-5-.04,5,0,5h0Z"/><path class="cls-5" d="M66.74,142.51s.04-5,0-5-.04,5,0,5h0Z"/><path class="cls-5" d="M39.14,133.03c.09,0,.17,0,.26-.02.07-.02.14-.05.21-.04,0-.07.01-.14,0-.22,0-.17,0-.34,0-.52,0-.59,0-1.18,0-1.77s0-1.18,0-1.77v-.39c0-.11,0-.23-.02-.34-.07-.01-.14.02-.21.04-.08.02-.17.02-.26.02,0,.07-.01.14,0,.22,0,.17,0,.34,0,.52,0,.59,0,1.18,0,1.77s0,1.18,0,1.77c0,.07,0,.73.02.73h0Z"/><path class="cls-5" d="M63.8,136.8c.21.09.34.16.48.34.11.15.29.24.44.35.42.3.45.76.67,1.19.04.08.07.18.13.24.06.07.1.08.15.17.09.19.25.36.36.55.12.2.24.4.34.62s.16.53.2.77v-.09s0,.05,0,.08v-4.57c0-.23-.02.19-.02.21-.01.44-.01.88-.01,1.32,0,1.12-.04,2.25.02,3.37,0,.18.05.34.08.51.01.08,0,.18.04.25,0,.1.02.11.04.03.01-.03.02-.06.03-.09.08-.17.15-.21.3-.31.21-.14.17-.25.17-.51.02-1.14.02-2.28,0-3.42,0-.49.02-.98-.05-1.46v4.66s.01.05.01.08v.09c.03-.33.07-.69.16-1.01s.22-.6.28-.93.09-.67.22-.96c.05-.12.22-.52.37-.55v-4.66s-.01.04-.01.06v-.34s0,.09-.04.12c-.06.09-.02.71-.02.73,0,.59,0,1.18,0,1.77s0,1.18,0,1.77v.39c0,.11,0,.23.02.34.1-.14.06-.36.07-.52.02-.94.01-1.88.01-2.82,0-.16-.06-1.83-.02-1.84-.12.03-.19.23-.24.33-.11.19-.18.36-.22.57-.1.45-.16.89-.32,1.32-.15.41-.22.88-.25,1.31-.06.85-.03,1.73-.03,2.58,0,.72,0,1.44.01,2.16,0,.17,0,.32.04.49v-.09s0,.05,0,.07v-4.91c-.03.11-.13.16-.22.22-.12.08-.17.13-.23.26,0,.02-.04.14-.06.14,0,0-.04-.2-.04-.21-.03-.16-.05-.31-.08-.47v.09s0-.06,0-.08v4.82c.04-1.24.04-2.48.03-3.71,0-.52.03-1.06-.03-1.57-.02-.16-.07-.32-.11-.48-.13-.58-.52-1.01-.79-1.51-.03-.06-.02-.07-.07-.12-.03-.04-.07-.05-.11-.1-.07-.1-.12-.24-.17-.36-.11-.27-.16-.56-.35-.8-.16-.2-.39-.3-.58-.46-.11-.08-.15-.22-.26-.3-.09-.07-.22-.11-.32-.15,0,0-.02.84-.02.73,0,.59,0,1.18,0,1.77s0,1.18,0,1.77c0,.09-.04.71.02.73h0Z"/><path class="cls-5" d="M45.9,130.36c.4,0,.77-.12,1.17-.17.34-.04.68-.01,1.01-.06.73-.11,1.46-.25,2.21-.17.18.02.3.09.46.14.2.06.42.03.63.02.2-.01.34.01.53.04s.4-.02.59.02c.4.07.79.12,1.2.16.34.03.7.05,1.03.15,0,0,.02-.85.02-.73,0-.59,0-1.18,0-1.77s0-1.18,0-1.77c0-.08.03-.72-.02-.73-.68-.21-1.45-.15-2.15-.29-.2-.04-.4-.01-.6-.03-.18-.02-.33-.06-.51-.05-.21.01-.44.05-.65,0-.19-.04-.32-.14-.52-.16-.73-.07-1.43.08-2.15.17-.34.04-.67.03-1.01.06-.41.04-.8.17-1.23.17-.06,0-.01,5,0,5h0Z"/><path class="cls-5" d="M63.36,131.16l-.03-.06.02,4.27c0,.59,0,.67,0,.25,0-.3,0-.6,0-.9,0-.64,0-1.28,0-1.93s.07-1.35-.06-1.99c-.04-.19-.08-.3-.25-.42s-.32-.21-.47-.36c-.14-.14-.28-.3-.42-.44-.06-.06-.11-.08-.17-.14-.05-.05-.07-.11-.12-.16-.23-.19-.54-.24-.75-.45-.23-.23-.46-.44-.7-.66-.15-.14-.32-.22-.49-.32-.09-.05-.21-.08-.3-.15-.06-.04-.09-.1-.15-.15-.14-.12-.4-.2-.57-.26-.19-.07-.41-.13-.59-.21-.16-.07-.3-.2-.47-.28s-.37-.09-.56-.09c.02,0-.1,5,0,5,.15,0,.35.01.49.06.16.05.3.17.44.26.3.18.69.23,1,.39.07.04.2.08.26.13.04.04.07.09.11.12.14.11.35.2.51.28.29.15.51.4.74.62.18.17.33.37.56.46.13.05.22.1.33.18.13.09.19.18.3.29.23.23.47.52.73.72.12.09.27.13.38.25.12.13.14.31.17.48v-4.91c-.06.85-.03,1.71-.03,2.55,0,.59,0,1.18,0,1.77,0,.2-.06.59.05.79-.05-.08.02-.73.02-.73,0-.59,0-1.18,0-1.77s0-1.18,0-1.77c0-.18.07-.58-.02-.73h0Z"/><path class="cls-5" d="M84.14,125.53c-.38,0-.91-.01-1.28.11-.14.05-.22.12-.37.15-.1.02-.21.01-.31.02-.2.03-.38.07-.57.08-.93.04-1.9.13-2.83.3-.48.09-.96.22-1.44.27-.26.02-.52.03-.76.15-.2.1-.37.22-.57.3-1,.41-1.91.94-2.95,1.23-.13.04-.03,2.28-.02,2.5,0,.59,0,1.18,0,1.77,0,.07.03.73.02.73,1.01-.29,1.9-.81,2.88-1.21.47-.19.83-.43,1.35-.48s1-.18,1.5-.27c.91-.16,1.85-.24,2.78-.29.39-.02.87-.09,1.24-.23s.94-.14,1.34-.14c.06,0,.02-5,0-5h0Z"/><path class="cls-1" d="M87.16,131.03s-15.66-1.17-20.46,11.84"/><path class="cls-1" d="M66.92,142.87s-3.09-14.89-21.02-12.46"/><circle class="cls-4" cx="49.78" cy="41.94" r="6.67"/><circle class="cls-4" cx="76.45" cy="41.94" r="6.67"/><circle class="cls-7" cx="47.96" cy="40.12" r="3.64"/><circle class="cls-7" cx="74.63" cy="40.12" r="3.64"/><path class="cls-3" d="M58.91,61.94s4.5-9.7,9.84,0"/><path class="cls-6" d="M59.73,48.6s5.13-3.64,8.81,0c0,0-.53,1.69-4.19,2.97,0,0-4.37.06-4.62-2.97Z"/><ellipse class="cls-6" cx="21.3" cy="14.66" rx="3.64" ry="2.42"/><ellipse class="cls-6" cx="107.36" cy="15.27" rx="3.64" ry="1.82"/><path class="cls-6" d="M28.57,69.21c4.81,3.22,11.29,6.67,19.38,8.81,24.67,6.5,45.79-4.09,52.14-7.6-2.39,2.17-5.88,4.98-10.54,7.52-2.86,1.56-12.92,6.92-25.88,6.74-19.16-.26-32.07-12.45-35.11-15.47Z"/><path class="cls-6" d="M15.23,110.43s5.26,12.65,20.21,8.75c1.34-.65,1.56-1.24,1.61-1.48.03-.14.11-.62.17-1.03.03-.23.08-.49.07-.55-.34-2.09-8.15-2.32-9.59-2.77-6.16-1.94-8.7-6.59-11.26-5.34-.63.31-1.01.85-1.21,1.21v1.21Z"/><path class="cls-6" d="M10.39,149.63s7.81,18.77,29.98,12.98c1.98-.96,2.31-1.84,2.39-2.19.04-.2.16-.93.25-1.54.05-.35.12-.73.11-.81-.5-3.1-12.09-3.44-14.23-4.12-9.14-2.88-12.91-9.78-16.7-7.92-.94.46-1.49,1.26-1.8,1.8v1.8Z"/><path class="cls-6" d="M116.91,154.67s-12.33,16.16-32.3,4.91c-1.67-1.44-1.77-2.37-1.75-2.73,0-.21.08-.94.15-1.55.04-.35.07-.74.1-.81,1.28-2.87,12.56-.25,14.81-.35,9.57-.46,14.98-6.17,18.17-3.41.79.69,1.12,1.6,1.28,2.2l-.46,1.74Z"/><path class="cls-6" d="M117.05,114.31s-5.93,12.35-20.65,7.66c-1.3-.72-1.49-1.32-1.53-1.56-.02-.14-.08-.63-.11-1.04-.02-.24-.05-.5-.04-.55.45-2.07,8.26-1.88,9.72-2.26,6.25-1.61,9.04-6.12,11.53-4.73.62.34.96.9,1.15,1.28l-.06,1.21Z"/><ellipse class="cls-6" cx="66.75" cy="163.76" rx="3.03" ry="1.21"/><path class="cls-7" d="M37.05,17.09c-1.98.67-4.4,1.69-6.97,3.29-3.45,2.14-5.92,4.53-7.58,6.41-1.9,1.82-3.01,3.62-3.64,4.85-1.4,2.73-1.29,4.27-1.21,4.85.09.71.27,2.11,1.21,2.42.73.24,1.72-.24,2.42-1.21,16.17-13.17,17.98-17.82,16.98-19.64-.22-.4-.61-.73-1.23-.97Z"/><ellipse class="cls-7" cx="17.05" cy="44.97" rx="1.82" ry="2.42"/><path class="cls-7" d="M24.93,87.39c-.23-.46-.61-1-1.21-1.21-1.62-.56-3.69,1.65-5.59,3.68-2.64,2.82-3.79,5.29-4.11,6.01-.82,1.86-1.7,4.59-1.21,4.85.4.21,1.67-1.21,2.42-2.42.66-1.07.63-1.49,1.21-2.42.59-.94,1.4-1.75,2.42-2.42,2.02-1.62,4.04-3.23,6.06-4.85v-1.21Z"/><path class="cls-7" d="M18.67,128.88c-.37-.47-.93-1-1.69-1.11-2.03-.28-3.99,2.69-5.8,5.42-2.51,3.79-3.33,6.84-3.55,7.73-.58,2.29-1.03,5.58-.39,5.77.51.15,1.71-1.74,2.34-3.29.55-1.36.43-1.83.91-3.02.49-1.2,1.27-2.3,2.34-3.29,2.03-2.28,4.07-4.56,6.1-6.84l-.26-1.38Z"/><ellipse class="cls-7" cx="95.24" cy="101.94" rx="3.64" ry="2.42" transform="translate(-43.46 116.9) rotate(-53.1)"/><ellipse class="cls-7" cx="80.69" cy="140.12" rx="4.24" ry="2.42" transform="translate(-81 139.94) rotate(-60)"/></svg>