<?xml version="1.0" encoding="UTF-8"?><svg id="Layer_1" xmlns="http://www.w3.org/2000/svg" viewBox="0 0 214.27 108.2"><defs><style>.cls-1{fill:#676767;}.cls-1,.cls-2,.cls-3{stroke-width:0px;}.cls-4,.cls-5{fill:#f1eee3;}.cls-4,.cls-5,.cls-6,.cls-7,.cls-8{stroke:#000;stroke-miterlimit:10;}.cls-4,.cls-5,.cls-6,.cls-8{stroke-linecap:round;}.cls-4,.cls-8{stroke-width:2px;}.cls-5{stroke-width:4px;}.cls-2,.cls-8{fill:#fff;}.cls-6{fill:none;}.cls-6,.cls-7{stroke-width:3px;}.cls-7{fill:#000;}.cls-3{fill:#f17aa9;}</style></defs><ellipse class="cls-1" cx="110.29" cy="100.7" rx="58" ry="7.5"/><path class="cls-5" d="M24.29,85.2c15.17,9.62,30.67,12.49,72,13,71.16.88,84.15-6.9,90-11,16.41-11.49,29.78-31.14,25-41-3.72-7.69-15.89-4.1-26-16-7.91-9.32-5.55-17.52-12-20-8.27-3.18-14.32,9.48-26,8-11.71-1.49-12.91-15.12-24-16-10.49-.83-13.31,11.07-25,11-12.14-.07-16.21-12.95-25-11-9,1.99-7.55,16.1-18,20-10.68,3.99-20.14-7.76-27-3-5.06,3.52-.72,10.47-6,20-6.42,11.58-17.95,10.53-20,18-2.46,8.96,11.2,21.15,22,28Z"/><path class="cls-4" d="M29.29,55.2s84-48,158-3"/><path class="cls-8" d="M21.29,46.2s6-1,6,3"/><path class="cls-8" d="M56.29,25.2s5,2,4,10"/><path class="cls-8" d="M99.29,17.2s4,4,1,10"/><path class="cls-8" d="M147.29,22.2s2,4-1,6"/><path class="cls-8" d="M189.29,38.2s2,4-4,5"/><circle class="cls-7" cx="97.29" cy="59.2" r="7.5"/><circle class="cls-7" cx="128.29" cy="59.2" r="7.5"/><circle class="cls-2" cx="130.29" cy="56.2" r="4"/><circle class="cls-2" cx="99.29" cy="56.2" r="4"/><path class="cls-6" d="M105.24,71.71c.8,3.71,4.24,6.28,8,6,3.71-.28,6.71-3.27,7-7"/><circle class="cls-3" cx="128.79" cy="71.7" r="4.5"/><circle class="cls-3" cx="96.79" cy="71.7" r="4.5"/></svg>