<?xml version="1.0" encoding="UTF-8"?><svg id="Layer_1" xmlns="http://www.w3.org/2000/svg" viewBox="0 0 189.01 144.5"><defs><style>.cls-1{fill:#000;}.cls-1,.cls-2,.cls-3,.cls-4{stroke-width:0px;}.cls-2{fill:#676767;}.cls-3{fill:#fff;}.cls-5{fill:#b33825;stroke:#722413;}.cls-5,.cls-6{stroke-miterlimit:10;stroke-width:3px;}.cls-6{fill:none;stroke:#000;stroke-linecap:round;}.cls-4{fill:#f17aa9;}</style></defs><ellipse class="cls-2" cx="93.51" cy="135.5" rx="65.5" ry="9"/><path class="cls-5" d="M55.13,8.9c13.09-10.74,35.04-9.99,52.43,3.57,3.42,8.68,10.1,28.38,1.79,36.34-4.48,4.29-9.74,1.73-30.98,2.38-23.09.71-27.79,4.06-32.17,0-8.13-7.54-4.82-31.01,8.94-42.3Z"/><path class="cls-5" d="M108.75,13.66c-9.05,7.93-12.69,23.14-7.15,29.79,6.52,7.81,22.25-.38,28.6,8.34,4.39,6.03-.46,13.64,4.77,17.87,3.47,2.81,9.55,2.66,13.11,0,4.89-3.66,4.31-11.54,3.57-21.45-.69-9.32-2.52-10.66-3.57-22.64-.71-8.02,0-8.68-1.19-10.72-4.98-8.55-25.97-11.85-38.13-1.19Z"/><path class="cls-5" d="M70.62,44.65c-1.48-.52-13.98-4.81-17.87,0-2.44,3.01.78,6.75,0,13.11-1.49,12.06-15.18,15.69-14.3,20.26,1.67,8.6,53.74,13.97,59.58-1.19,3.73-9.7-11.87-26.69-27.41-32.17Z"/><path class="cls-5" d="M40.83,44.65c-12.35,6.88-21.94-1.03-32.17,7.15-1.04.83-6.91,5.52-7.15,11.92-.57,14.95,29.93,29.7,39.32,22.64,5.72-4.3-.47-13.64,7.15-23.83,6.23-8.33,13.97-6.92,16.68-14.3,2.8-7.6-2.03-18.29-7.15-19.06-5.24-.79-6,9.54-16.68,15.49Z"/><path class="cls-5" d="M112.32,41.07c-9.76-.96-18.02,5.31-34.55,17.87-12.73,9.67-13.09,13.06-13.11,14.3-.17,10.33,20.53,18.01,29.79,21.45,14.34,5.32,39.44,14.63,48.85,3.57,9.01-10.59-2.53-32.61-3.57-34.55-2.14-3.98-11.32-21.05-27.41-22.64Z"/><path class="cls-5" d="M122.43,126.5c11.96,8.36,31.22,8.6,38.15-.12,2.19-2.76,2.04-5.03,2.82-15.42,2.18-29.12,5.14-34.82,1.08-38.11-4.47-3.62-9.5,2.1-26.3,2.83-16.02.7-20.15-4.11-25.01-.71-9.96,6.98-9.06,38.7,9.27,51.52Z"/><path class="cls-5" d="M80.81,83.94c19.23,10.59,25.74,7.1,30.49,14.2,7.6,11.36-1.7,36.17-15.78,41.17-5.35,1.9-6.9-.19-21.43-.76-21.99-.87-25.93,4-32.19.04-11.05-6.98-11.18-29.97-4.34-45.46,1.22-2.77,8.69-19.69,21.01-20.71,6.75-.56,8.88,4.17,22.24,11.52Z"/><circle class="cls-1" cx="107.51" cy="57" r="10.5"/><circle class="cls-3" cx="104.51" cy="53" r="4.5"/><circle class="cls-4" cx="107.51" cy="70" r="4.5"/><path class="cls-6" d="M85.01,72.5c.8,3.71,4.24,6.28,8,6,3.71-.28,6.71-3.27,7-7"/><circle class="cls-1" cx="78.51" cy="58" r="10.5"/><circle class="cls-3" cx="75.51" cy="54" r="4.5"/><circle class="cls-4" cx="77.51" cy="71" r="4.5"/></svg>