<?xml version="1.0" encoding="UTF-8"?><svg id="Layer_1" xmlns="http://www.w3.org/2000/svg" viewBox="0 0 210 70"><defs><style>.cls-1{fill:#000;}.cls-1,.cls-2,.cls-3{stroke-width:0px;}.cls-2{fill:#fff;}.cls-4{fill:none;stroke-width:3px;}.cls-4,.cls-5{stroke:#000;stroke-linecap:round;stroke-miterlimit:10;}.cls-3{fill:#ff7bac;}.cls-5{fill:#ffde8c;stroke-width:2px;}</style></defs><circle class="cls-5" cx="154.4" cy="35" r="34"/><circle class="cls-1" cx="164.9" cy="32.5" r="8.5"/><circle class="cls-1" cx="145.9" cy="32.5" r="8.5"/><circle class="cls-2" cx="143.9" cy="28.5" r="3.5"/><circle class="cls-2" cx="162.9" cy="28.5" r="3.5"/><path class="cls-4" d="M149.9,47s5.6,8.88,11.5,0"/><circle class="cls-3" cx="144.4" cy="42" r="3"/><circle class="cls-3" cx="166.4" cy="42" r="3"/><path class="cls-1" d="M3.09,17.05h10.02v20.01c0,1.56.25,2.6.75,3.12.5.52,1.49.78,2.97.78h.52v9.77h-2.67c-3.65,0-6.5-1.06-8.54-3.2-2.04-2.13-3.06-5.09-3.06-8.87v-21.61Z"/><path class="cls-1" d="M30.75,17.05v33.68h-10.02V17.05h10.02Z"/><path class="cls-1" d="M61.69,17.05l-14.68,35.6-14.58-35.6h11.6l3.08,10.51,3.41-10.51h11.18Z"/><path class="cls-1" d="M81.85,30.15v7.5h-6.54c-.89,0-1.52.13-1.89.39-.37.26-.56.71-.56,1.33,0,.71.19,1.17.57,1.39.38.22,1.15.33,2.32.33h6.74v9.62h-7.87c-3.7,0-6.53-.88-8.49-2.65-1.96-1.77-2.94-4.32-2.94-7.66v-13.2c0-3.22.92-5.72,2.78-7.5s4.45-2.67,7.81-2.67h8.71v9.67h-6.39c-1.73,0-2.59.56-2.59,1.68,0,.66.21,1.12.62,1.37.41.25,1.14.38,2.2.38h5.53Z"/><path class="cls-1" d="M104.06,16.9v9.6c-.72-.25-1.28-.37-1.68-.37-.76,0-1.41.28-1.95.84-.54.56-.81,1.23-.81,2.02,0,.67.3,1.53.89,2.57l.76,1.33c1.38,2.4,2.07,4.72,2.07,6.96,0,3.27-1.16,6.04-3.49,8.31-2.33,2.27-5.17,3.41-8.52,3.41-1.61,0-3.21-.37-4.79-1.11v-9.75c.95.61,1.8.91,2.54.91.87,0,1.6-.25,2.18-.75.58-.5.88-1.13.88-1.89,0-.49-.47-1.57-1.41-3.23-1.5-2.63-2.25-5.26-2.25-7.9,0-3.17,1.13-5.91,3.39-8.2,2.26-2.29,4.96-3.44,8.11-3.44,1.38,0,2.74.23,4.07.69Z"/><path class="cls-1" d="M202.76,27.57c1.15,0,2.14.42,2.96,1.25s1.24,1.82,1.24,2.97-.41,2.12-1.23,2.93-1.81,1.2-2.97,1.2-2.2-.39-2.98-1.17-1.17-1.77-1.17-2.98.4-2.17,1.21-2.98,1.79-1.22,2.94-1.22ZM202.76,37.59c1.15,0,2.14.42,2.96,1.25s1.24,1.82,1.24,2.97-.41,2.12-1.23,2.93-1.81,1.2-2.97,1.2-2.2-.39-2.98-1.17-1.17-1.77-1.17-2.98.4-2.17,1.21-2.98,1.79-1.22,2.94-1.22Z"/></svg>