<?xml version="1.0" encoding="UTF-8"?><svg id="Layer_1" xmlns="http://www.w3.org/2000/svg" xmlns:xlink="http://www.w3.org/1999/xlink" viewBox="0 0 177 111"><defs><style>.cls-1{fill:#a6431f;}.cls-1,.cls-2,.cls-3{stroke-width:0px;}.cls-2{fill:#d98c4a;}.cls-4{fill:none;stroke:#a6431f;stroke-width:7px;}.cls-4,.cls-5,.cls-6{stroke-miterlimit:10;}.cls-5{fill:url(#linear-gradient-2);}.cls-5,.cls-6{stroke:#d97e4a;}.cls-6{fill:url(#linear-gradient);}.cls-3{fill:#f2b66d;}</style><linearGradient id="linear-gradient" x1="364.24" y1="-600.94" x2="364.41" y2="-707.39" gradientTransform="translate(-285.83 683.42)" gradientUnits="userSpaceOnUse"><stop offset=".99" stop-color="#d98c4a"/><stop offset=".99" stop-color="#b08f4a"/><stop offset="1" stop-color="#4b974a"/><stop offset="1" stop-color="#009d4a"/></linearGradient><linearGradient id="linear-gradient-2" x1="-553.15" y1="397.13" x2="-552.98" y2="290.67" gradientTransform="translate(666.8 -314.17)" xlink:href="#linear-gradient"/></defs><path class="cls-2" d="M1.36,39.56c1.32,5.55,5.05,19.52,8.87,33.83,4.1,15.36,8.31,31.1,9.77,37.23,48,0,94-1,142-1,4.99-23.35,9.99-46.71,14.98-70.06H1.36Z"/><path class="cls-3" d="M174.05,61.62H2.95c-1.63,0-2.95-1.32-2.95-2.95v-17.11c0-1.63,1.32-2.95,2.95-2.95h171.11c1.63,0,2.95,1.32,2.95,2.95v17.11c0,1.63-1.32,2.95-2.95,2.95Z"/><line class="cls-4" x1="88.5" y1="109.62" x2="87.83" y2="61.62"/><line class="cls-4" x1="107.5" y1="109.62" x2="106.83" y2="61.62"/><line class="cls-4" x1="70.5" y1="109.62" x2="69.83" y2="61.62"/><line class="cls-4" x1="50.5" y1="109.62" x2="49.83" y2="61.62"/><line class="cls-4" x1="29.5" y1="109.62" x2="28.83" y2="61.62"/><line class="cls-4" x1="127.5" y1="109.62" x2="126.83" y2="61.62"/><line class="cls-4" x1="147.5" y1="109.62" x2="146.83" y2="61.62"/><path class="cls-1" d="M170,73.62c-53.26-.08-106.51-.15-159.77-.23l1.69,6.34,156.08-.11c.67-2,1.33-4,2-6Z"/><path class="cls-1" d="M166,91.81c-50.33-.08-100.67-.15-151-.23l1.6,6.34,147.51-.11c.63-2,1.26-4,1.89-6Z"/><rect class="cls-6" x="73" y="-2.38" width="11" height="56" rx="2.01" ry="2.01" transform="translate(31.89 -42.54) rotate(37.56)"/><rect class="cls-5" x="108.24" y="-1.91" width="11" height="56" rx="2.01" ry="2.01" transform="translate(8.29 76.07) rotate(-38.28)"/></svg>