<?xml version="1.0" encoding="UTF-8"?><svg id="Layer_1" xmlns="http://www.w3.org/2000/svg" viewBox="0 0 495.38 139.21"><defs><style>.cls-1{fill:#000;stroke:#585859;stroke-miterlimit:10;stroke-width:6px;}.cls-2{fill:#fff;stroke-width:0px;}</style></defs><rect class="cls-1" x="3.09" y="3.55" width="489.21" height="132.12" rx="31.46" ry="31.46" transform="translate(-.18 .64) rotate(-.15)"/><path class="cls-2" d="M57.99,115.92l-18.32.05-.1-40.76c-.02-7.48,1.92-13.58,5.83-18.29,2.25-2.72,5.11-4.88,8.58-6.49s7.04-2.42,10.7-2.43c7.28-.02,13.43,2.42,18.44,7.3,5.01,4.89,7.52,10.89,7.54,18.01.02,6.92-2.45,12.91-7.4,17.95-4.95,5.04-10.82,7.57-17.62,7.59-1.11,0-2.74-.11-4.9-.33l-.05-20.18c1.5,1.21,3.01,1.8,4.51,1.8,1.89,0,3.52-.71,4.87-2.12,1.35-1.41,2.02-3.08,2.02-5,0-1.93-.71-3.57-2.12-4.92-1.41-1.35-3.09-2.03-5.05-2.02-4.7.01-7.05,3.27-7.03,9.77l.1,40.08Z"/><path class="cls-2" d="M116.91,30.82l.17,66.87-18.32.05-.17-66.87,18.32-.05Z"/><path class="cls-2" d="M154.91,79.27l.05,18.96c-1.5.26-2.87.4-4.11.4-7.35.02-13.48-2.38-18.39-7.2-4.91-4.82-7.38-10.87-7.4-18.16-.02-7.09,2.44-13.1,7.38-18.05,4.94-4.94,10.95-7.42,18.04-7.44,7.9-.02,14.14,2.28,18.71,6.88,4.57,4.61,6.86,10.92,6.88,18.92l.06,23.96-18.32.05-.06-22.63c0-2.58-.64-4.64-1.9-6.17-1.26-1.53-2.95-2.29-5.08-2.29-1.93,0-3.59.71-4.99,2.12-1.4,1.41-2.1,3.08-2.09,5,0,2.03.65,3.69,1.92,4.99,1.28,1.3,2.9,1.95,4.86,1.95,1.6,0,3.08-.43,4.45-1.28Z"/><path class="cls-2" d="M193.17,118.91l-.04-15.92c2.49,1.04,4.66,1.55,6.52,1.55,5.94-.02,9.79-3.37,11.54-10.07-3.2,1.9-6.33,2.86-9.4,2.87-4.54.01-8.28-1.67-11.23-5.04-2.95-3.37-4.43-7.67-4.44-12.9l-.08-30.72,18.32-.05.07,26.26c0,2.91,1.22,4.36,3.64,4.35,2.32,0,3.47-1.61,3.47-4.81l-.07-25.82,18.32-.05.11,43.6c.02,8.13-2.25,14.7-6.81,19.71-5.44,5.96-12.03,8.95-19.77,8.97-3.4,0-6.78-.64-10.15-1.93Z"/><path class="cls-2" d="M283.83,30.39l.05,20.43c3.1-2.26,6.2-3.4,9.3-3.4,4.7-.01,8.44,1.68,11.21,5.07,2.77,3.39,4.16,7.97,4.17,13.76l.08,30.96-18.32.05-.07-25.82c0-2.09-.23-3.49-.67-4.21-.44-.72-1.3-1.08-2.58-1.07-2.06,0-3.08,1.53-3.07,4.56l.07,26.55-18.32.05-.17-66.87,18.32-.05Z"/><path class="cls-2" d="M367.28,75.59l-27.78.07c-.43-1.4-.64-2.69-.65-3.87,0-1.63.29-3.23.87-4.8l9.31-.02c-.66-3.62-2.71-5.43-6.14-5.42-2.29,0-4.15.98-5.58,2.93-1.43,1.95-2.15,4.44-2.14,7.48,0,3.17.71,5.73,2.1,7.69,1.39,1.96,3.22,2.93,5.47,2.92,1.83,0,3.59-.92,5.28-2.76l10.47,12.52c-4.86,3.83-10.26,5.76-16.2,5.77-7.25.02-13.35-2.4-18.29-7.25-4.95-4.85-7.43-10.87-7.45-18.06-.02-7.15,2.46-13.2,7.43-18.15,4.97-4.94,11.08-7.43,18.33-7.44,7.09-.02,13.05,2.38,17.88,7.18,4.83,4.81,7.25,10.74,7.27,17.79,0,.72-.06,1.86-.19,3.43Z"/><path class="cls-2" d="M401.6,47.63l.05,19.6c-1.28-.72-2.44-1.07-3.48-1.07-3.33,0-4.99,2.56-4.98,7.66l.06,23.17-18.32.05-.07-26.7c-.02-7.05,1.89-12.69,5.74-16.89,3.84-4.21,8.98-6.32,15.42-6.33,1.44,0,3.3.17,5.59.53Z"/><path class="cls-2" d="M455.07,75.37l-27.78.07c-.43-1.4-.64-2.69-.65-3.87,0-1.63.29-3.23.87-4.8l9.31-.02c-.66-3.62-2.71-5.43-6.14-5.42-2.29,0-4.15.98-5.58,2.93-1.43,1.95-2.15,4.44-2.14,7.48,0,3.17.71,5.73,2.1,7.69,1.39,1.96,3.22,2.93,5.47,2.93,1.83,0,3.59-.92,5.28-2.76l10.47,12.52c-4.86,3.83-10.26,5.76-16.2,5.77-7.25.02-13.35-2.4-18.29-7.25-4.95-4.85-7.43-10.87-7.45-18.06-.02-7.15,2.46-13.2,7.43-18.15,4.97-4.94,11.08-7.43,18.33-7.44,7.09-.02,13.05,2.38,17.88,7.18,4.83,4.81,7.25,10.74,7.27,17.79,0,.72-.06,1.86-.19,3.43Z"/></svg>