<?xml version="1.0" encoding="UTF-8"?><svg id="Layer_1" xmlns="http://www.w3.org/2000/svg" viewBox="0 0 139.13 151.5"><defs><style>.cls-1,.cls-2,.cls-3,.cls-4{stroke-width:0px;}.cls-1,.cls-5{fill:#000;}.cls-6,.cls-7,.cls-8,.cls-9,.cls-5,.cls-10{stroke:#000;stroke-miterlimit:10;}.cls-6,.cls-3{fill:#fff;}.cls-2{fill:#676767;}.cls-7,.cls-10{fill:none;}.cls-8{fill:#ed2b2f;}.cls-8,.cls-9,.cls-5,.cls-10{stroke-width:3px;}.cls-9{fill:#ec2024;}.cls-4{fill:#f17aa9;}</style></defs><path class="cls-6" d="M1.96,62.75l134.05,1.86S134.31,1.89,69.63,1.5C4.95,1.11,1.96,62.75,1.96,62.75Z"/><ellipse class="cls-2" cx="67.13" cy="146.5" rx="45.5" ry="5"/><rect class="cls-9" x="40.13" y="129" width="58" height="18" rx="8.8" ry="8.8"/><circle class="cls-10" cx="69.63" cy="69.5" r="68"/><path class="cls-8" d="M1.63,64.61h134.38c2.42,39.45-29.59,72.78-67.88,72.39C30.35,136.62-.77,103.53,1.63,64.61Z"/><rect class="cls-7" x="34.1" y="26.39" width="8" height="14.85" rx="4" ry="4" transform="translate(81.4 60.66) rotate(170.21)"/><rect class="cls-6" x="80.8" y="26.73" width="8" height="14.85" rx="4" ry="4" transform="translate(138.45 108.19) rotate(-147.87)"/><rect class="cls-6" x="56.8" y="4.73" width="8" height="14.85" rx="4" ry="4" transform="translate(49.82 -48.87) rotate(68.49)"/><rect class="cls-6" x="113.8" y="41.73" width="8" height="14.85" rx="4" ry="4" transform="translate(244.4 32.83) rotate(150)"/><rect class="cls-6" x="14.8" y="43.73" width="8" height="14.85" rx="4" ry="4" transform="translate(73.3 50.82) rotate(109.82)"/><rect class="cls-6" x="56.8" y="36.73" width="8" height="14.85" rx="4" ry="4" transform="translate(121.6 88.32) rotate(-180)"/><rect class="cls-6" x="87.8" y="46.73" width="8" height="14.85" rx="4" ry="4" transform="translate(101.25 160.33) rotate(-125.62)"/><rect class="cls-6" x="96.8" y="11.73" width="8" height="14.85" rx="4" ry="4" transform="translate(203.39 20.9) rotate(170.21)"/><circle class="cls-5" cx="53.63" cy="82.5" r="7.5"/><circle class="cls-5" cx="88.63" cy="82.5" r="7.5"/><circle class="cls-3" cx="50.63" cy="79.5" r="4"/><circle class="cls-3" cx="84.63" cy="79.5" r="4"/><path class="cls-1" d="M63.63,93.5h16s-1.27,12.74-8,13c-6.73.25-8-13-8-13Z"/><circle class="cls-4" cx="54.13" cy="95" r="4.5"/><circle class="cls-4" cx="88.13" cy="95" r="4.5"/></svg>