<?xml version="1.0" encoding="UTF-8"?><svg id="Layer_1" xmlns="http://www.w3.org/2000/svg" viewBox="0 0 346 165"><defs><style>.cls-1{fill:#000;stroke:#585859;stroke-miterlimit:10;stroke-width:6px;}.cls-2{fill:#fff;stroke-width:0px;}</style></defs><rect class="cls-1" x="3" y="3" width="340" height="159" rx="31.46" ry="31.46"/><path class="cls-2" d="M74.45,46.55v19.06c-1.44-.49-2.55-.73-3.33-.73-1.5,0-2.79.56-3.87,1.67-1.08,1.11-1.62,2.45-1.62,4.02,0,1.34.59,3.04,1.76,5.1l1.52,2.65c2.74,4.77,4.12,9.37,4.12,13.82,0,6.5-2.31,12-6.93,16.51-4.62,4.51-10.26,6.76-16.93,6.76-3.2,0-6.37-.74-9.5-2.21v-19.35c1.89,1.21,3.58,1.81,5.05,1.81,1.73,0,3.18-.5,4.34-1.49,1.16-1,1.74-2.25,1.74-3.75,0-.98-.93-3.12-2.79-6.42-2.97-5.23-4.46-10.45-4.46-15.68,0-6.3,2.25-11.73,6.74-16.29,4.49-4.56,9.86-6.83,16.09-6.83,2.74,0,5.44.46,8.08,1.37Z"/><path class="cls-2" d="M113.64,66.05v47.67h-19.89v-47.67h-15.24v-19.21h50.32v19.21h-15.19Z"/><path class="cls-2" d="M160.43,80.16v17.64h-5.73v15.92h-19.89v-42.53c0-8.23,2.25-14.62,6.74-19.18,4.49-4.56,10.8-6.83,18.94-6.83s13.64,2.07,17.39,6.2c3.75,4.13,5.63,10.51,5.63,19.13v43.21h-19.89v-41.89c0-2.61-.31-4.43-.93-5.44-.62-1.01-1.73-1.52-3.33-1.52-3.1,0-4.65,2.32-4.65,6.96v8.33h5.73Z"/><path class="cls-2" d="M215.45,64.82v48.89h-19.89V46.84h25.53c7.77,0,13.8,1.93,18.08,5.78,4.77,4.31,7.15,9.78,7.15,16.41s-2.96,12.46-8.87,17.1l11.46,27.58h-20.87l-9.65-21.56v-17.2h1.57c4.18,0,6.27-1.8,6.27-5.39,0-3.17-2.42-4.75-7.25-4.75h-3.53Z"/><path class="cls-2" d="M284.67,66.05v47.67h-19.89v-47.67h-15.24v-19.21h50.32v19.21h-15.19Z"/></svg>