<?xml version="1.0" encoding="UTF-8"?><svg id="Layer_1" xmlns="http://www.w3.org/2000/svg" viewBox="0 0 239.19 134"><defs><style>.cls-1{fill:#000;}.cls-1,.cls-2,.cls-3,.cls-4{stroke-width:0px;}.cls-2{fill:#676767;}.cls-5{fill:#f28891;}.cls-5,.cls-6,.cls-7{stroke-linecap:round;stroke-miterlimit:10;stroke-width:4px;}.cls-5,.cls-7{stroke:#000;}.cls-6{fill:none;stroke:#be6c7c;}.cls-7,.cls-3{fill:#fff;}.cls-4{fill:#f17aa9;}</style></defs><ellipse class="cls-2" cx="120.09" cy="125" rx="65.5" ry="9"/><rect class="cls-7" x="29.09" y="24.5" width="188" height="96" rx="34.3" ry="34.3"/><path class="cls-5" d="M39.59,78.27c-7.35,5.76-25.49,4.95-33-1.51-11.48-9.86.36-34.16,16-48.18C60.79-5.67,152.77-6.44,202.59,24.07c18.56,11.37,40.81,32.92,33,43.66-5.02,6.91-22.66,9.61-34,5.27-10.92-4.18-11.2-13.04-17-20.33-23.36-29.34-129.99-25.26-143-.75-5.22,9.83,6.27,19.87-2,26.35Z"/><line class="cls-6" x1="7.36" y1="61.46" x2="36.81" y2="64.54"/><line class="cls-6" x1="12.59" y1="47" x2="36.81" y2="52.13"/><line class="cls-6" x1="26.59" y1="31" x2="42.59" y2="43"/><line class="cls-6" x1="42.59" y1="21" x2="52.59" y2="38"/><line class="cls-6" x1="59.59" y1="14" x2="66.59" y2="32"/><line class="cls-6" x1="78.59" y1="9" x2="83.39" y2="29.91"/><line class="cls-6" x1="97.59" y1="7" x2="99.59" y2="28"/><line class="cls-6" x1="115.59" y1="6" x2="115.59" y2="27"/><line class="cls-6" x1="133.59" y1="7" x2="131.46" y2="28.5"/><line class="cls-6" x1="150.59" y1="10" x2="146.59" y2="31"/><line class="cls-6" x1="168.59" y1="15" x2="160.59" y2="34"/><line class="cls-6" x1="185.59" y1="22" x2="175.59" y2="40"/><line class="cls-6" x1="203.59" y1="31" x2="187.99" y2="49.56"/><line class="cls-6" x1="217.09" y1="41" x2="195.13" y2="59.45"/><line class="cls-6" x1="227.59" y1="54" x2="201.59" y2="68"/><line class="cls-6" x1="8.33" y1="72.5" x2="36.81" y2="72.5"/><circle class="cls-1" cx="136.09" cy="59.5" r="10.5"/><circle class="cls-1" cx="104.09" cy="59.5" r="10.5"/><circle class="cls-3" cx="99.09" cy="59.5" r="4.5"/><circle class="cls-3" cx="131.09" cy="59.5" r="4.5"/><path class="cls-1" d="M114.95,71h9.64s-.77,7.68-4.82,7.83-4.82-7.83-4.82-7.83Z"/><circle class="cls-4" cx="136.09" cy="73.5" r="4.5"/><circle class="cls-4" cx="104.09" cy="73.5" r="4.5"/></svg>