<?xml version="1.0" encoding="UTF-8"?><svg id="Layer_1" xmlns="http://www.w3.org/2000/svg" viewBox="0 0 88.46 117.16"><defs><style>.cls-1{fill:#9b5c08;stroke-width:0px;}</style></defs><path class="cls-1" d="M1.07,1L87.68,0c.48,2.37,4.18,22.36-10.05,38.84-13.11,15.18-31.28,15.64-34.06,15.66-.33-.04-.67-.07-1-.11,0,0-45.5-3.39-41.5-53.39Z"/><path class="cls-1" d="M87.35,116.16L.75,117.16c-.49-2.53-4.01-22.42,10.05-38.84,12.11-14.15,28.63-15.61,31.77-15.83h0c2.5.04,23.08.7,36.28,18.24,11.6,15.4,8.99,32.48,8.5,35.43Z"/><path class="cls-1" d="M29.57,68.5c.26,1.09,6.49,1.01,26-2-3.95-.93-6.64-3.69-6.65-6.4-.01-2.73,2.69-4.84,3.65-5.6,1.5-1.18,3.01-1.73,4-2h-24c3.67,2.17,6.88,4.85,6.66,7.67-.36,4.7-9.99,6.94-9.66,8.33Z"/></svg>