<?xml version="1.0" encoding="UTF-8"?><svg id="Layer_1" xmlns="http://www.w3.org/2000/svg" viewBox="0 0 495.38 139.21"><defs><style>.cls-1{fill:#000;stroke:#585859;stroke-miterlimit:10;stroke-width:6px;}.cls-2{fill:#fff;stroke-width:0px;}</style></defs><rect class="cls-1" x="3.09" y="3.55" width="489.21" height="132.12" rx="31.46" ry="31.46" transform="translate(-.18 .64) rotate(-.15)"/><path class="cls-2" d="M67.85,30.97l.05,18.71,8.23-.02.05,19.35-8.23.02c0,3.89.63,6.56,1.86,8.03s3.48,2.2,6.74,2.19l.05,19.25c-.95.03-1.65.05-2.11.05-4.15.01-8.06-.94-11.74-2.86-3.68-1.92-6.63-4.52-8.86-7.82-2.82-4.21-4.24-9.79-4.26-16.75l-.1-40.12,18.32-.05Z"/><path class="cls-2" d="M111.94,48.4l.05,19.6c-1.28-.72-2.44-1.07-3.48-1.07-3.33,0-4.99,2.56-4.98,7.66l.06,23.17-18.32.05-.07-26.7c-.02-7.05,1.89-12.69,5.74-16.89,3.84-4.21,8.98-6.32,15.42-6.33,1.44,0,3.3.17,5.59.52Z"/><path class="cls-2" d="M123.82,119.11l-.04-15.92c2.49,1.04,4.66,1.56,6.52,1.55,5.94-.01,9.79-3.37,11.54-10.07-3.2,1.9-6.33,2.86-9.4,2.87-4.54.01-8.28-1.67-11.23-5.04-2.95-3.37-4.43-7.67-4.44-12.9l-.08-30.72,18.32-.05.07,26.26c0,2.91,1.22,4.36,3.64,4.35,2.32,0,3.47-1.61,3.47-4.81l-.07-25.82,18.32-.05.11,43.6c.02,8.13-2.25,14.7-6.81,19.71-5.44,5.96-12.03,8.95-19.77,8.97-3.4,0-6.78-.64-10.15-1.93Z"/><path class="cls-2" d="M223.42,79.12l.05,18.96c-1.5.26-2.87.4-4.11.4-7.35.02-13.48-2.38-18.39-7.2-4.91-4.82-7.38-10.87-7.4-18.16-.02-7.09,2.44-13.1,7.38-18.05,4.94-4.94,10.95-7.43,18.04-7.44,7.9-.02,14.14,2.28,18.71,6.88,4.57,4.61,6.86,10.92,6.88,18.92l.06,23.96-18.32.05-.06-22.63c0-2.58-.64-4.64-1.9-6.17-1.26-1.53-2.95-2.29-5.08-2.29-1.93,0-3.59.71-4.99,2.12-1.4,1.41-2.1,3.08-2.09,5,0,2.03.65,3.69,1.92,4.99,1.28,1.3,2.9,1.95,4.86,1.95,1.6,0,3.08-.43,4.45-1.29Z"/><path class="cls-2" d="M281.33,77.16l.04,16.8c-2.64.99-5.17,1.48-7.59,1.49-5.91.02-10.92-2.21-15.03-6.67-4.11-4.46-6.17-9.93-6.19-16.4-.02-6.99,2.43-12.89,7.35-17.71,4.92-4.81,10.97-7.23,18.16-7.25,3.82,0,7.48.75,10.98,2.28,3.5,1.53,6.25,3.58,8.25,6.15,3.34,4.27,5.02,10.47,5.05,18.61l.04,16.07c.02,8.72-2.43,15.81-7.37,21.26-4.93,5.45-11.37,8.19-19.31,8.21-2.42,0-5.47-.59-9.17-1.79l-.04-16.66c2.39,1.3,4.81,1.95,7.26,1.94,3.3,0,5.84-1.1,7.63-3.28,1.79-2.18,2.68-5.29,2.67-9.34l-.05-18.37c-.01-5.13-2.09-7.69-6.24-7.68-1.76,0-3.3.69-4.62,2.04-1.32,1.36-1.98,2.92-1.97,4.68,0,1.86.64,3.41,1.9,4.65,1.26,1.24,2.82,1.85,4.68,1.85,1.24,0,2.43-.3,3.57-.89Z"/><path class="cls-2" d="M340.27,78.83l.05,18.96c-1.5.26-2.87.4-4.11.4-7.35.02-13.48-2.38-18.39-7.2-4.91-4.82-7.38-10.87-7.4-18.16-.02-7.09,2.44-13.1,7.38-18.05,4.94-4.94,10.95-7.42,18.04-7.44,7.9-.02,14.14,2.28,18.71,6.88,4.57,4.61,6.86,10.92,6.88,18.92l.06,23.96-18.32.05-.06-22.63c0-2.58-.64-4.64-1.9-6.17-1.26-1.53-2.95-2.29-5.08-2.29-1.93,0-3.59.71-4.99,2.12-1.4,1.41-2.1,3.08-2.09,5,0,2.03.65,3.69,1.92,4.99,1.28,1.3,2.9,1.95,4.86,1.95,1.6,0,3.08-.43,4.45-1.28Z"/><path class="cls-2" d="M390.36,48.17l.12,48.84-18.32.05-.12-48.84,18.32-.05ZM381.19,26.4c2.48,0,4.63.86,6.45,2.6,1.82,1.74,2.73,3.81,2.74,6.19,0,2.55-.84,4.64-2.56,6.28-1.71,1.64-3.91,2.46-6.58,2.47-2.68,0-4.88-.8-6.6-2.43-1.72-1.63-2.58-3.72-2.59-6.26,0-2.38.9-4.45,2.7-6.2,1.81-1.75,3.95-2.63,6.44-2.64Z"/><path class="cls-2" d="M444.82,96.88l-18.32.05-.07-27.58c0-2.81-1.17-4.21-3.49-4.21-2.29,0-3.42,1.41-3.42,4.22l.07,27.58-18.32.05-.07-27.24c-.02-6.37,2.08-11.74,6.28-16.11,4.2-4.37,9.36-6.56,15.46-6.58,6.99-.02,12.6,2.5,16.82,7.55,3.31,3.94,4.97,9.44,4.99,16.5l.07,25.77Z"/></svg>