<?xml version="1.0" encoding="UTF-8"?><svg id="Layer_1" xmlns="http://www.w3.org/2000/svg" viewBox="0 0 348 567"><defs><style>.cls-1,.cls-2,.cls-3,.cls-4,.cls-5,.cls-6,.cls-7,.cls-8,.cls-9,.cls-10,.cls-11{stroke-miterlimit:10;}.cls-1,.cls-2,.cls-3,.cls-4,.cls-5,.cls-6,.cls-7,.cls-8,.cls-10,.cls-11{stroke:#000;}.cls-1,.cls-2,.cls-4,.cls-8,.cls-10,.cls-11{stroke-width:3px;}.cls-1,.cls-12{fill:#999b9a;}.cls-2{fill:#170900;}.cls-3,.cls-4,.cls-5,.cls-6,.cls-7,.cls-9{stroke-linecap:round;}.cls-3,.cls-6,.cls-11{fill:none;}.cls-4,.cls-8{fill:#ffde8c;}.cls-12,.cls-13,.cls-14{stroke-width:0px;}.cls-5,.cls-7,.cls-9{stroke-width:4px;}.cls-5,.cls-10{fill:#000;}.cls-6{stroke-width:5px;}.cls-7,.cls-9{fill:#fff;}.cls-13{fill:#ff7bac;}.cls-9{stroke:#fff;}.cls-14{fill:#4d4d4d;}</style></defs><ellipse class="cls-4" cx="316.13" cy="512.56" rx="22" ry="31.5"/><ellipse class="cls-4" cx="31.13" cy="512.56" rx="22" ry="31.5"/><path class="cls-1" d="M61.37,232.23s-17,14.02-10.5,33.73c6.5,19.72,129.84,26.33,129.84,26.33,0,0-69.56-64.81-119.34-60.07Z"/><path class="cls-1" d="M177.38,291.85s95.07-.48,128.07-38.06c0,0,2.77-21.86-15.48-31.76,0,0-66.58,18.87-112.59,69.82Z"/><path class="cls-1" d="M56.23,514.37c9.1-4.69,12.9-125.83,12.9-125.83-2.97,38.17-5.93,76.33-8.9,114.5-.13,1.67-.26,3.35-.39,5.02-.31.75-.83,1.85-1.71,3-.45.59-1.02,1.22-1.84,1.85-2.93,2.22-9.13,4.32-25.16,4.15-22.2-.23-25.15-4.41-26-6-.8-1.48-.98-2.96-1-4-.67-45.67-1.33-91.33-2-137-2-44,15-67,15-67,14-25,54.67-24.26,54.67-24.26,0,0,67.5,12.72,108.91,13.49,41.42.77,82.73-14.29,94.57-18.26,0,0,28.84-7.49,44.84,4.77s18,24.26,18,24.26c1.11,7.89,2.11,15.89,3,24,7.08,64.36,5.96,124.76,0,180-.37.76-.99,1.87-2,3-4.58,5.1-10.85,3.51-28,4-12.55.36-18.76-1.73-21-3-5.63-3.18-8.72-8.95-14-54-3.62-30.85-4.47-47.7-1.79-68.22.35-2.7.7-4.94.95-6.47"/><path class="cls-1" d="M56.29,512.91c-.84,42.85,7.84,52.15,7.84,52.15l214.02-2.27,3.32-.04,11.67-.69s7.57-14.1,2.79-48.05c0,0-3.79,1.05-5.79-1.95"/><path class="cls-12" d="M61.63,507.56c-1.33,2.67-2.67,5.33-4,8h237c-2.44-.8-6.18-2.44-9-6-2.62-3.3-3.18-6.67-4-11-3.09-16.4-1.4-2.3-4-19-1.69-10.83-2.79-17.92-4-29-1.03-9.42-1.68-15.41-2-24-.18-4.75-.28-11.26,0-19,.31-8.55,1.03-16.57,2-24-70.67,41.33-141.33,82.67-212,124Z"/><path class="cls-6" d="M162.13,291.85s-9.5,19.72-3.5,33.72.76,27.87.76,27.87"/><path class="cls-6" d="M197.57,353.62s-9.04-19.94-2.71-33.79c6.32-13.86,1.4-27.85,1.4-27.85"/><path class="cls-8" d="M224.16,253.06h-92.06c-33.67,0-60.97-27.3-60.97-60.97v-60.06c0-33.67,27.3-60.97,60.97-60.97,10.1-.49,20.45-.83,31.03-1,21.26-.34,41.63.06,61.03,1,4.06,0,25.66.41,43.11,17.86,11.03,11.03,17.86,26.28,17.86,43.11v60.06c0,33.67-27.3,60.97-60.97,60.97Z"/><path class="cls-11" d="M161.13,245.06s14.09,12,33.54,0"/><circle class="cls-2" cx="140.63" cy="152.56" r="17.5"/><circle class="cls-2" cx="218.63" cy="152.56" r="17.5"/><rect class="cls-5" x="156.63" y="168.56" width="9" height="24" rx="4.5" ry="4.5" transform="translate(267.55 -36.79) rotate(67.83)"/><rect class="cls-5" x="187.63" y="168.56" width="9" height="24" rx="4.5" ry="4.5" transform="translate(431.84 70.76) rotate(112.17)"/><circle class="cls-9" cx="134.13" cy="145.06" r="3.5"/><circle class="cls-9" cx="211.13" cy="145.06" r="3.5"/><path class="cls-5" d="M176.15,235.03c1.78.89,4.03.65,5.54-.56,5.31-4.27,16.62-14.3,13.36-19.88-.52-.89-1.44-2.18-5.1-3.14-14.89-3.88-24.8-1.05-27.2-.21-.35.12-.68.28-.99.47-2.14,1.38-3.01,2.77-3.37,3.85-1.81,5.35,5.1,13.13,17.77,19.47Z"/><circle class="cls-13" cx="137.63" cy="178.56" r="9"/><circle class="cls-13" cx="216.63" cy="178.56" r="9"/><path class="cls-10" d="M179.11,72.68c-.12,1.12-1.31,1.78-1.66,1.99-11.4,6.87-12.8,18.12-48.32,31.4-35.17,13.14-51.16,8.6-54,18.18-2.07,6.97,5.04,12.03,8,33.45,2.6,18.81-3.23,22-2,43.2,1.5,25.93,10.98,34.28,7,43.2-4.72,10.59-23.93,11.99-32,0-6.84-10.17.24-21.2-3-54.35-2.4-24.5-7.23-28.38-7-48.78.01-1.21.35-21.07,6-37.63,22.26-65.28,114.13-41.27,121.98-36.23,1.33.85,5.23,3.35,5,5.57Z"/><path class="cls-10" d="M172.58,77.2c.21,1.15,1.88,1.69,1.81,1.81-.12.21-4.24-1.98-4.26-1.95-.04.07,24.5,26.5,57,29,9.41.72,41.81,1.15,52.14,8.43.43.31.65.47.77.62,2.93,3.75-4.19,15.47-5.32,35.71-1.11,19.8,4.94,22.24,5.39,44.3.55,26.99-8.22,37-3.56,45.63,5.53,10.23,24.74,8.85,31.82-4.71,6-11.5-1.91-21.85-1.3-56.55.45-25.64,4.96-30.36,3.12-51.38-.11-1.25-2.01-21.7-8.93-37.96-27.28-64.11-116.74-25.79-124.15-19.43-1.26,1.08-4.94,4.23-4.53,6.49Z"/><path class="cls-14" d="M284.3,99.56H72.96c-12.33,0-22.33-8.63-22.33-19.28v-6.45c0-10.65,10-19.28,22.33-19.28h8.92s202.42,0,202.42,0c12.33,0,22.33,8.63,22.33,19.28v6.45c0,10.65-10,19.28-22.33,19.28Z"/><path class="cls-14" d="M264.96,73.56H92.3c-10.22,0-18.5-8.28-18.5-18.5v-3c1.38-4.98,3.27-9.31,5.42-13.08C102.14-1.21,167.82.23,177.63.56v23V.56c9.92-.4,77.18-2.29,100.41,38.42,2.16,3.78,4.04,8.11,5.42,13.08v3c0,10.22-8.28,18.5-18.5,18.5Z"/><line class="cls-3" x1="69.17" y1="97.42" x2="69.17" y2="56.56"/><line class="cls-3" x1="164.6" y1="96.95" x2="164.6" y2="56.1"/><line class="cls-3" x1="186.6" y1="96.95" x2="186.6" y2="56.1"/><line class="cls-3" x1="206.3" y1="96.95" x2="206.3" y2="56.1"/><line class="cls-3" x1="227.15" y1="96.95" x2="227.15" y2="56.1"/><line class="cls-3" x1="248" y1="96.95" x2="248" y2="56.1"/><line class="cls-3" x1="268.85" y1="96.95" x2="268.85" y2="56.1"/><line class="cls-3" x1="288.54" y1="96.95" x2="288.54" y2="56.1"/><line class="cls-3" x1="92.78" y1="96.95" x2="92.78" y2="56.1"/><line class="cls-3" x1="117.1" y1="96.95" x2="117.1" y2="56.1"/><line class="cls-3" x1="140.27" y1="96.95" x2="140.27" y2="56.1"/><polygon class="cls-8" points="141.63 253.06 141.63 259.82 180.12 288.87 215.34 258.78 215.34 253.06 141.63 253.06"/><path class="cls-7" d="M163.2,201.68c.37-8.51,7.71-14.92,15.58-14.35,7.14.52,13.12,6.67,13.42,14.35h-29Z"/></svg>